# Blender 4.3.0
# www.blender.org
o door_fr_glass
v -21.637653 34.434212 16.036396
v -18.271255 36.433372 11.916840
v -21.895287 36.441879 11.768063
v -18.161488 34.386024 16.419590
v -14.296708 36.413353 12.104095
v -13.523725 34.399269 16.597469
v -9.181674 36.373329 12.325829
v -21.544712 33.818390 17.266785
v -18.068535 33.532082 18.135952
v -21.489796 33.384621 18.106045
v -17.920689 32.321625 20.451855
v -13.194299 33.494492 18.446747
v -12.826804 32.445129 20.524857
v -12.273511 30.808462 23.650108
v -4.125829 32.460564 20.936016
v -1.680224 30.336140 25.071739
v -5.578799 28.962305 27.082378
v 0.769562 28.201534 28.681591
v 4.410465 30.001019 25.687687
v 7.721916 27.530371 29.726788
v 10.205488 29.754990 26.190853
v 12.266723 27.287968 30.055920
v 14.433495 29.528074 26.320118
v 15.759769 27.153162 30.182621
v 12.908722 32.069824 21.816544
v 7.793720 32.169159 21.618660
v 0.858256 32.334579 21.232258
v -0.776355 33.321136 19.155830
v -5.300018 33.406639 18.911648
v -6.499596 34.361206 16.891270
v -6.001175 36.347961 12.470791
v -2.432053 34.307693 17.079430
v 3.177120 36.215569 12.839302
v 5.567785 34.154724 17.461266
v 9.985846 36.104828 13.079952
v 11.510656 34.027809 17.723541
v 6.691304 33.163971 19.537766
v 12.211812 33.048698 19.765800
vn -0.0310 0.9010 0.4328
vn -0.0189 0.9082 0.4180
vn -0.0154 0.9044 0.4263
vn -0.0270 0.9021 0.4306
vn -0.0140 0.9111 0.4119
vn -0.0161 0.9043 0.4266
vn -0.0115 0.9123 0.4095
vn -0.0394 0.8903 0.4536
vn -0.0310 0.8896 0.4557
vn -0.0422 0.8858 0.4620
vn -0.0302 0.8855 0.4636
vn -0.0197 0.8936 0.4484
vn -0.0242 0.8878 0.4596
vn -0.0259 0.8800 0.4742
vn -0.0140 0.8943 0.4472
vn -0.0155 0.8706 0.4918
vn -0.0313 0.8525 0.5218
vn -0.0081 0.8560 0.5169
vn -0.0022 0.8699 0.4932
vn -0.0002 0.8490 0.5284
vn 0.0094 0.8647 0.5022
vn 0.0158 0.8495 0.5273
vn 0.0269 0.8609 0.5081
vn 0.0141 0.8539 0.5202
vn 0.0081 0.8894 0.4570
vn -0.0016 0.8932 0.4496
vn -0.0027 0.8945 0.4471
vn -0.0038 0.9023 0.4310
vn -0.0132 0.9013 0.4329
vn -0.0112 0.9067 0.4217
vn -0.0080 0.9128 0.4084
vn -0.0049 0.9075 0.4201
vn -0.0014 0.9132 0.4074
vn -0.0010 0.9077 0.4196
vn 0.0010 0.9132 0.4075
vn 0.0011 0.9064 0.4224
vn -0.0011 0.9021 0.4315
vn 0.0009 0.9023 0.4312
vt 0.122638 0.011976
vt 0.000070 0.094298
vt 0.000492 0.000070
vt 0.128318 0.102653
vt 0.000294 0.197676
vt 0.127241 0.223199
vt 0.000308 0.330699
vt 0.158252 0.015881
vt 0.177967 0.107153
vt 0.182716 0.018320
vt 0.245632 0.113795
vt 0.180311 0.233999
vt 0.240331 0.246069
vt 0.331307 0.264235
vt 0.240197 0.472306
vt 0.358156 0.540793
vt 0.425345 0.442137
vt 0.464366 0.608822
vt 0.369795 0.699577
vt 0.489116 0.790631
vt 0.378021 0.850537
vt 0.494733 0.909056
vt 0.379297 0.960540
vt 0.495541 0.999930
vt 0.246709 0.915383
vt 0.246485 0.782390
vt 0.243115 0.601968
vt 0.185242 0.557051
vt 0.183509 0.439389
vt 0.126838 0.405812
vt 0.000508 0.413417
vt 0.127394 0.511581
vt 0.000598 0.652071
vt 0.129337 0.719628
vt 0.000070 0.829084
vt 0.130451 0.874184
vt 0.187825 0.751283
vt 0.188477 0.894837
s 1
f 1/1/1 2/2/2 3/3/3
f 4/4/4 2/2/2 1/1/1
f 4/4/4 5/5/5 2/2/2
f 6/6/6 5/5/5 4/4/4
f 6/6/6 7/7/7 5/5/5
f 8/8/8 4/4/4 1/1/1
f 9/9/9 4/4/4 8/8/8
f 9/9/9 8/8/8 10/10/10
f 11/11/11 9/9/9 10/10/10
f 11/11/11 12/12/12 9/9/9
f 13/13/13 12/12/12 11/11/11
f 14/14/14 13/13/13 11/11/11
f 14/14/14 15/15/15 13/13/13
f 16/16/16 15/15/15 14/14/14
f 17/17/17 16/16/16 14/14/14
f 18/18/18 16/16/16 17/17/17
f 18/18/18 19/19/19 16/16/16
f 20/20/20 19/19/19 18/18/18
f 20/20/20 21/21/21 19/19/19
f 22/22/22 21/21/21 20/20/20
f 22/22/22 23/23/23 21/21/21
f 24/24/24 23/23/23 22/22/22
f 9/9/9 6/6/6 4/4/4
f 12/12/12 6/6/6 9/9/9
f 23/23/23 25/25/25 21/21/21
f 21/21/21 25/25/25 26/26/26
f 21/21/21 26/26/26 19/19/19
f 19/19/19 26/26/26 27/27/27
f 19/19/19 27/27/27 16/16/16
f 16/16/16 27/27/27 15/15/15
f 27/27/27 28/28/28 15/15/15
f 15/15/15 28/28/28 29/29/29
f 15/15/15 29/29/29 13/13/13
f 13/13/13 29/29/29 12/12/12
f 29/29/29 30/30/30 12/12/12
f 12/12/12 30/30/30 6/6/6
f 30/30/30 7/7/7 6/6/6
f 30/30/30 31/31/31 7/7/7
f 32/32/32 31/31/31 30/30/30
f 32/32/32 33/33/33 31/31/31
f 34/34/34 33/33/33 32/32/32
f 34/34/34 35/35/35 33/33/33
f 36/36/36 35/35/35 34/34/34
f 37/37/37 36/36/36 34/34/34
f 37/37/37 34/34/34 28/28/28
f 27/27/27 37/37/37 28/28/28
f 26/26/26 37/37/37 27/27/27
f 26/26/26 38/38/38 37/37/37
f 25/25/25 38/38/38 26/26/26
f 29/29/29 32/32/32 30/30/30
f 28/28/28 32/32/32 29/29/29
f 28/28/28 34/34/34 32/32/32
f 38/38/38 36/36/36 37/37/37
