# Blender 4.3.0
# www.blender.org
o door_rr_handle_chrome
v 54.081573 39.027519 8.312981
v 53.819782 39.052650 8.253586
v 53.870476 39.107101 8.100868
v 54.136448 39.090347 8.147530
v 53.705864 39.450554 7.197418
v 53.473419 39.446365 7.214386
v 53.617081 39.525955 6.998089
v 53.388805 39.517570 7.023514
v 53.439484 39.584587 6.853882
v 45.904358 39.542702 7.074455
v 45.621376 39.551079 7.053219
v 45.832565 39.630661 6.841156
v 53.215828 39.810768 6.887814
v 53.021473 39.609711 6.790260
v 53.215828 39.572021 6.887814
v 53.388805 39.760498 7.023514
v 53.473419 39.685112 7.214386
v 46.271767 39.236946 7.888817
v 53.870476 39.350037 8.100868
v 53.629623 39.035896 8.300240
v 51.999493 39.065224 8.249363
v 53.629623 39.274643 8.300240
v 46.069050 39.722809 6.582436
v 45.900127 39.936417 6.663021
v 45.900127 39.693489 6.663021
v 45.608692 39.714424 6.607853
v 45.794525 39.747932 6.523045
v 53.878857 39.010765 8.359634
v 53.819782 39.291397 8.253586
v 48.861076 39.697670 6.616360
v 48.941074 39.676735 6.667248
v 46.618141 39.153175 8.105148
v 46.512604 39.249512 7.854889
v 52.134354 39.040085 8.308746
v 49.376247 39.094536 8.219662
v 53.228386 39.622284 6.747837
v 49.422745 39.350037 8.168770
v 47.222130 39.153175 8.096645
v 47.222130 39.391922 8.096645
v 45.541145 39.647415 6.802956
v 46.837635 39.408669 8.062714
v 46.512604 39.488251 7.854889
v 51.374146 39.634850 6.743603
v 49.422745 39.111290 8.168770
v 51.467125 39.651604 6.692673
v 46.837635 39.169930 8.062714
v 51.999493 39.303963 8.249363
v 45.904358 39.781441 7.074455
v 45.832565 39.869400 6.841156
v 48.941074 39.915474 6.667248
v 46.069050 39.965736 6.582436
v 51.374146 39.877785 6.743603
v 47.027790 39.136421 8.143307
v 53.021473 39.848457 6.790260
v 45.904358 39.848457 7.074455
v 46.512604 39.551079 7.854889
v 44.185287 39.986679 6.709682
v 45.849449 40.015999 6.616360
v 44.088158 40.049507 6.476383
v 45.904358 40.091393 6.391525
v 51.999493 39.370972 8.249363
v 49.422745 39.417046 8.168770
v 45.900127 39.999245 6.663021
v 45.832565 39.932228 6.841156
v 45.773430 39.936417 6.836926
v 48.941074 39.982491 6.667248
v 48.911755 40.011810 6.590893
v 46.069050 40.028564 6.582436
v 46.436367 39.555267 7.850658
v 51.374146 39.940605 6.743603
v 46.035130 40.049507 6.527271
v 53.021473 39.915474 6.790260
v 46.808300 39.454750 8.100872
v 46.837635 39.475685 8.062714
v 47.222130 39.458931 8.096645
v 47.251869 39.433807 8.156036
v 47.349030 39.341652 8.368103
v 46.930614 39.350037 8.351131
v 44.869553 39.417046 8.223896
v 44.768162 39.500816 8.007595
v 44.632992 39.618095 7.706409
v 53.629623 39.337463 8.300240
v 51.344421 39.969925 6.675705
v 45.811455 39.848457 7.070179
v 49.448303 39.379349 8.253590
v 49.503162 39.299774 8.435989
v 44.324673 39.881966 7.019287
v 52.032993 39.329094 8.334171
v 46.271767 40.095581 6.395798
v 46.368942 40.116524 6.344910
v 45.917042 40.108139 6.340633
v 53.388805 39.823326 7.023514
v 53.473419 39.752129 7.214386
v 53.870476 39.412857 8.100868
v 53.215828 39.877785 6.887814
v 53.317169 39.890343 6.849606
v 53.059593 39.936417 6.730865
v 53.819782 39.358414 8.253586
v 53.646397 39.308144 8.363869
v 52.109230 39.249512 8.508080
v 49.528301 39.274643 8.491119
v 47.378349 39.320717 8.418991
v 53.177708 39.760498 6.544235
v 51.272789 39.798203 6.506073
v 53.177708 40.011810 6.544235
v 46.960339 39.329094 8.402031
v 53.143787 39.990868 6.599396
v 48.873634 40.062065 6.463650
v 51.293743 40.028564 6.552738
v 43.712231 40.053696 6.442451
v 44.054344 40.070450 6.400028
v 44.024792 40.087204 6.332169
v 45.917042 39.856842 6.340633
v 48.856880 39.831703 6.412762
v 51.272789 40.049507 6.506073
v 53.828175 39.969925 6.637550
v 54.292667 39.911285 6.879307
v 53.828175 39.718620 6.637550
v 54.292667 39.659981 6.879307
v 53.465027 39.831703 7.010826
v 53.756557 39.957359 6.667244
v 48.856880 40.083015 6.412762
v 46.368942 39.861031 6.344910
v 54.504185 39.773064 7.248356
v 54.208488 39.902908 6.892040
v 54.174553 39.199249 8.597160
v 54.681362 39.232758 8.520805
v 54.588364 39.249512 8.491104
v 53.967636 39.404488 8.122105
v 53.908581 39.345848 8.283279
v 54.081573 39.220192 8.558964
v 44.024792 39.835892 6.332169
v 43.657337 40.057884 6.383060
v 44.894890 39.391922 8.287510
v 54.681362 38.981453 8.520805
v 54.174553 38.947937 8.597160
v 54.575821 39.777252 7.248356
v 52.138550 39.216003 8.584431
v 49.528301 39.023331 8.491119
v 43.534821 40.011810 6.658752
v 47.378349 39.065224 8.418991
v 46.960339 39.077782 8.402031
v 54.765961 39.496628 7.935467
v 54.833412 39.500816 7.918507
v 52.138550 38.964691 8.584431
v 54.778522 39.341652 8.279049
v 53.566383 39.756317 7.214386
v 54.575821 39.525955 7.248356
v 54.833412 39.249512 7.918507
v 54.854759 39.337463 8.291737
v 54.854759 39.086159 8.291737
v 44.894890 39.140610 8.287510
v 43.560162 39.898720 6.993862
v 43.657337 39.806572 6.383060
v 44.421803 39.425430 8.215431
v 44.012093 39.517570 7.990597
v 44.012093 39.266258 7.990597
v 43.433460 40.011810 6.650288
v 43.914963 39.655785 7.647060
v 43.809376 39.659981 7.642784
v 43.446117 39.902908 6.989597
v 44.421803 39.174118 8.215431
v 43.433460 39.760498 6.650288
v 43.446117 39.647415 6.989597
v 44.176830 39.513382 7.994865
v 44.459827 39.446365 8.156036
v 43.809376 39.408669 7.642784
vn -0.0036 -0.9358 -0.3524
vn -0.0093 -0.9348 -0.3552
vn -0.0018 -0.9363 -0.3511
vn 0.0033 -0.9349 -0.3548
vn -0.0079 -0.9357 -0.3527
vn -0.0075 -0.9363 -0.3510
vn -0.0067 -0.9347 -0.3554
vn -0.0050 -0.9324 -0.3613
vn -0.0038 -0.9322 -0.3619
vn -0.0013 -0.9362 -0.3515
vn -0.0034 -0.9353 -0.3538
vn -0.0054 -0.9389 -0.3440
vn -0.5356 -0.0000 0.8445
vn -0.2564 -0.0000 0.9666
vn -0.5465 -0.0000 0.8375
vn -0.7891 -0.0000 0.6142
vn -0.8154 -0.0000 0.5789
vn -0.9134 -0.0000 0.4070
vn -0.0010 -0.9356 -0.3532
vn -0.9133 -0.0000 0.4074
vn -0.9126 -0.0000 0.4088
vn -0.1015 -0.0000 -0.9948
vn 0.0312 -0.0000 -0.9995
vn -0.1045 -0.0000 -0.9945
vn 0.2163 -0.0000 0.9763
vn 0.4306 -0.0000 0.9026
vn -0.0049 -0.9367 -0.3500
vn -0.0057 -0.9405 -0.3399
vn -0.0013 -0.9319 -0.3628
vn -0.0068 -0.9311 -0.3647
vn -0.0051 -0.9284 -0.3716
vn -0.9491 -0.0000 -0.3150
vn -0.9491 -0.0000 -0.3151
vn -0.0039 -0.9271 -0.3749
vn -0.0046 -0.9285 -0.3713
vn -0.0041 -0.9271 -0.3749
vn 0.0004 -0.9323 -0.3617
vn -0.0009 -0.9343 -0.3565
vn -0.0049 -0.9249 -0.3802
vn -0.0074 -0.9475 -0.3195
vn -0.0059 -0.9258 -0.3781
vn -0.0046 -0.9382 -0.3461
vn -0.0073 -0.9485 -0.3168
vn -0.0057 -0.9419 -0.3359
vn 0.0320 -0.0000 -0.9995
vn 0.0598 -0.0000 -0.9982
vn 0.0604 -0.0000 -0.9982
vn -0.0093 -0.9399 -0.3414
vn 0.3226 -0.0000 -0.9465
vn 0.6528 -0.0000 -0.7576
vn 0.6734 -0.0000 -0.7393
vn -0.0069 -0.9460 -0.3242
vn -0.0054 -0.9339 -0.3575
vn -0.0072 -0.9479 -0.3186
vn -0.0057 -0.9468 -0.3217
vn -0.2383 -0.0000 -0.9712
vn 0.3033 -0.0000 -0.9529
vn 0.8688 -0.0000 -0.4952
vn 0.8869 -0.0000 -0.4620
vn 0.9558 -0.0000 -0.2941
vn 0.9350 -0.0000 0.3546
vn -0.0304 -0.0000 0.9995
vn -0.0305 -0.0000 0.9995
vn 0.2063 -0.0000 0.9785
vn -0.0298 -0.0000 0.9996
vn -0.0021 -0.9276 -0.3735
vn -0.0072 -0.9299 -0.3678
vn -0.2443 -0.0000 0.9697
vn 0.9029 -0.0000 -0.4299
vn 0.6922 -0.0000 -0.7217
vn 0.0037 0.9577 0.2879
vn -0.0057 0.9445 0.3285
vn -0.0102 0.9635 0.2674
vn -0.0124 0.9503 0.3112
vn 0.0351 0.9341 0.3552
vn 0.0006 0.9392 0.3434
vn 0.0186 0.9374 0.3479
vn 0.0039 0.9339 0.3575
vn 0.0024 0.9320 0.3625
vn 0.0049 0.9359 0.3523
vn 0.0295 0.9420 0.3344
vn -0.0155 0.9346 0.3553
vn 0.0169 0.9369 0.3492
vn -0.0299 -0.0000 0.9996
vn -0.0065 0.9440 0.3298
vn -0.2308 -0.0000 0.9730
vn -0.0149 0.9124 0.4090
vn -0.0331 0.8868 0.4610
vn -0.0018 0.9193 0.3935
vn 0.0043 0.9144 0.4049
vn 0.0016 0.9199 0.3922
vn 0.0041 0.9218 0.3877
vn 0.0032 0.9238 0.3828
vn 0.0077 0.9324 0.3614
vn 0.0070 0.9329 0.3602
vn 0.0113 0.9342 0.3567
vn 0.1952 -0.0000 0.9808
vn -0.1081 -0.0000 -0.9941
vn 0.0094 0.9409 0.3386
vn 0.0029 0.9112 0.4119
vn 0.0030 0.9185 0.3953
vn -0.0005 0.9367 0.3502
vn 0.0047 0.9156 0.4020
vn 0.0041 0.8975 0.4411
vn 0.0056 0.9140 0.4056
vn 0.3392 -0.0000 -0.9407
vn 0.0609 -0.0000 -0.9981
vn 0.0096 0.9422 0.3348
vn 0.0048 0.9040 0.4274
vn 0.0033 0.9084 0.4182
vn -0.0076 0.9395 0.3425
vn -0.0019 0.9260 0.3775
vn -0.0126 0.9504 0.3109
vn -0.7597 -0.0000 0.6503
vn -0.9136 -0.0000 0.4066
vn 0.0135 0.9388 0.3441
vn 0.0055 0.9344 0.3563
vn 0.0053 0.9311 0.3646
vn 0.0020 0.9113 0.4118
vn 0.0041 0.9241 0.3822
vn 0.0050 0.9134 0.4071
vn 0.0060 0.9110 0.4124
vn 0.0051 0.9257 0.3782
vn 0.0828 -0.0000 -0.9966
vn 0.0292 -0.0000 -0.9996
vn 0.0795 -0.0000 -0.9968
vn 0.0045 0.9257 0.3783
vn 0.0072 0.9292 0.3695
vn 0.0004 0.9274 0.3741
vn 0.0032 0.9085 0.4178
vn -0.0344 0.9848 0.1700
vn -0.0130 0.9663 0.2573
vn -0.0179 0.9711 0.2378
vn 0.0070 -0.0000 -1.0000
vn -0.0644 -0.0000 -0.9979
vn 0.0330 -0.0000 -0.9995
vn 0.0294 -0.0000 -0.9996
vn 0.2970 -0.0000 -0.9549
vn 0.6201 -0.0000 -0.7845
vn 0.3151 -0.0000 -0.9491
vn 0.6627 -0.0000 -0.7489
vn -0.0302 0.9345 0.3548
vn -0.0151 0.9356 0.3527
vn -0.0324 0.9294 0.3676
vn -0.0418 0.9287 0.3684
vn -0.5241 -0.0000 0.8517
vn 0.0015 0.9129 0.4082
vn 0.0005 0.9248 0.3805
vn 0.0329 -0.0000 -0.9995
vn 0.0184 -0.0000 -0.9998
vn 0.0109 0.9322 0.3617
vn -0.0411 0.9252 0.3773
vn -0.0398 0.9333 0.3569
vn -0.0386 0.9393 0.3410
vn 0.0096 0.8863 0.4629
vn 0.0203 0.9034 0.4284
vn 0.0103 0.9033 0.4288
vn -0.0006 0.9312 0.3644
vn 0.0088 0.9248 0.3803
vn 0.0036 0.8965 0.4431
vn -0.0685 -0.0000 -0.9977
vn -0.1372 -0.0000 -0.9905
vn 0.0087 0.9312 0.3644
vn 0.1490 -0.0000 0.9888
vn 0.0730 -0.0000 0.9973
vn 0.0701 -0.0000 0.9975
vn -0.0511 0.9214 0.3853
vn -0.0211 -0.0000 0.9998
vn -0.0346 -0.0000 0.9994
vn -0.0056 0.9700 0.2432
vn -0.0371 -0.0000 0.9993
vn -0.0370 -0.0000 0.9993
vn -0.0478 -0.0000 0.9989
vn 0.0150 0.9196 0.3926
vn 0.0364 0.9208 0.3883
vn -0.0208 -0.0000 0.9998
vn -0.0307 0.9446 0.3269
vn -0.0599 0.9892 0.1340
vn -0.0090 0.9144 0.4047
vn -0.0481 -0.0000 0.9988
vn -0.0356 0.9292 0.3679
vn 0.8862 -0.0000 -0.4633
vn 0.9686 -0.0000 -0.2487
vn 0.9849 -0.0000 -0.1730
vn 0.9984 -0.0000 -0.0571
vn 0.7973 -0.0000 0.6035
vn -0.0169 0.9150 0.4031
vn -0.1046 -0.0000 0.9945
vn -0.1016 -0.0000 0.9948
vn 0.0040 0.9354 0.3535
vn 0.8570 -0.0000 -0.5153
vn 0.0044 0.9161 0.4010
vn 0.0172 0.9441 0.3291
vn -0.3343 -0.0000 0.9425
vn -0.4811 -0.0000 0.8767
vn -0.7665 -0.0000 -0.6422
vn 0.0190 0.9344 0.3558
vn 0.0231 0.9375 0.3472
vn 0.0174 0.9457 0.3245
vn -0.3060 -0.0000 0.9520
vn -0.9748 -0.0000 0.2229
vn -0.9993 -0.0000 0.0373
vn -0.9490 -0.0000 0.3152
vn -0.0207 0.9684 0.2484
vn 0.0154 0.9322 0.3617
vn 0.0148 0.9301 0.3670
vn 0.0145 0.9359 0.3519
vn 0.0180 0.9383 0.3452
vn -0.8700 -0.0000 0.4930
vn -0.8680 -0.0000 0.4966
vn -0.8640 -0.0000 0.5036
vn -0.8640 -0.0000 0.5035
vt 0.911765 0.761771
vt 0.920083 0.760002
vt 0.916633 0.770849
vt 0.909191 0.762979
vt 0.874302 0.766325
vt 0.869841 0.775374
vt 0.867088 0.766861
vt 0.860331 0.771256
vt 0.861371 0.763923
vt 0.895583 0.200608
vt 0.891030 0.207483
vt 0.884819 0.201498
vt 0.840030 0.767067
vt 0.853110 0.749224
vt 0.852667 0.763389
vt 0.849473 0.779408
vt 0.861730 0.785250
vt 0.921367 0.219795
vt 0.924988 0.784601
vt 0.919072 0.744471
vt 0.924695 0.616268
vt 0.941821 0.753481
vt 0.880299 0.224710
vt 0.863154 0.203591
vt 0.879009 0.209001
vt 0.886564 0.208428
vt 0.885816 0.210296
vt 0.913890 0.758185
vt 0.935027 0.772142
vt 0.870401 0.440405
vt 0.866290 0.446124
vt 0.928182 0.229169
vt 0.930555 0.219137
vt 0.919722 0.626622
vt 0.926742 0.417944
vt 0.856503 0.759427
vt 0.948569 0.421333
vt 0.933261 0.262766
vt 0.950770 0.260968
vt 0.887911 0.207832
vt 0.948303 0.233435
vt 0.936631 0.211621
vt 0.857372 0.627298
vt 0.930737 0.421318
vt 0.861160 0.633996
vt 0.933201 0.238209
vt 0.943909 0.616521
vt 0.891992 0.189159
vt 0.875315 0.192735
vt 0.849006 0.444933
vt 0.857138 0.219080
vt 0.838722 0.626302
vt 0.929396 0.250891
vt 0.834126 0.752124
vt 0.890934 0.185174
vt 0.938273 0.208872
vt 0.841605 0.071719
vt 0.852600 0.198355
vt 0.824050 0.067167
vt 0.834349 0.205239
vt 0.949100 0.616532
vt 0.953559 0.421328
vt 0.857978 0.201620
vt 0.871764 0.189293
vt 0.869595 0.185023
vt 0.843893 0.444601
vt 0.837981 0.441912
vt 0.851911 0.218255
vt 0.937891 0.204988
vt 0.834066 0.626016
vt 0.847100 0.215556
vt 0.828912 0.752710
vt 0.955869 0.229412
vt 0.952760 0.231450
vt 0.955669 0.260497
vt 0.960337 0.262713
vt 0.976934 0.269691
vt 0.975778 0.238892
vt 0.957764 0.099259
vt 0.941794 0.094345
vt 0.919520 0.088359
vt 0.947681 0.755242
vt 0.828773 0.623383
vt 0.888802 0.179790
vt 0.960360 0.423588
vt 0.974988 0.428375
vt 0.865544 0.077143
vt 0.956291 0.619542
vt 0.834760 0.235325
vt 0.830100 0.242930
vt 0.830212 0.206497
vt 0.845898 0.781945
vt 0.859365 0.788613
vt 0.925442 0.788792
vt 0.835555 0.768571
vt 0.832275 0.775995
vt 0.823741 0.755421
vt 0.940274 0.777404
vt 0.953876 0.757104
vt 0.971254 0.626469
vt 0.979420 0.430473
vt 0.980920 0.271937
vt 0.786525 0.767633
vt 0.795475 0.616150
vt 0.807355 0.764322
vt 0.979782 0.240957
vt 0.812000 0.761761
vt 0.827797 0.438141
vt 0.818748 0.618746
vt 0.819708 0.042455
vt 0.818191 0.065345
vt 0.812962 0.063700
vt 0.809959 0.207448
vt 0.804570 0.435972
vt 0.815002 0.616837
vt 0.818243 0.813558
vt 0.839262 0.844051
vt 0.799809 0.824795
vt 0.829475 0.861990
vt 0.844681 0.787430
vt 0.820311 0.808282
vt 0.823695 0.436537
vt 0.810209 0.242644
vt 0.867689 0.855350
vt 0.839832 0.838198
vt 0.977627 0.809254
vt 0.972011 0.850313
vt 0.968970 0.843400
vt 0.930226 0.795164
vt 0.944598 0.786029
vt 0.973821 0.801274
vt 0.791958 0.060738
vt 0.815799 0.039419
vt 0.962631 0.100521
vt 0.993086 0.856241
vt 0.999809 0.810286
vt 0.868207 0.860665
vt 0.977957 0.629096
vt 0.998291 0.430958
vt 0.831624 0.030301
vt 0.999809 0.271748
vt 0.997819 0.240210
vt 0.924930 0.863924
vt 0.924671 0.869311
vt 0.998564 0.629523
vt 0.952970 0.859199
vt 0.860006 0.793998
vt 0.868132 0.881223
vt 0.934231 0.889519
vt 0.954883 0.864875
vt 0.972164 0.878626
vt 0.980070 0.097618
vt 0.853517 0.026419
vt 0.799767 0.026809
vt 0.953310 0.069472
vt 0.933439 0.044237
vt 0.948798 0.033500
vt 0.829735 0.024153
vt 0.907447 0.040549
vt 0.905846 0.032995
vt 0.851376 0.018975
vt 0.970470 0.063611
vt 0.825197 0.005393
vt 0.857311 0.000191
vt 0.935092 0.055288
vt 0.949423 0.072566
vt 0.918334 0.017432
s 1
f 1/1/1 2/2/2 3/3/3
f 1/1/1 3/3/3 4/4/4
f 4/4/4 3/3/3 5/5/5
f 3/3/3 6/6/6 5/5/5
f 6/6/6 7/7/7 5/5/5
f 6/6/6 8/8/8 7/7/7
f 8/8/8 9/9/9 7/7/7
f 10/10/10 11/11/11 12/12/12
f 13/13/13 14/14/14 15/15/15
f 16/16/16 8/8/17 17/17/18
f 18/18/19 11/11/11 10/10/10
f 17/17/18 8/8/17 6/6/20
f 17/17/18 6/6/20 19/19/21
f 6/6/20 3/3/21 19/19/21
f 20/20/22 21/21/23 22/22/24
f 23/23/25 24/24/26 25/25/26
f 25/25/27 26/26/28 27/27/29
f 28/28/30 20/20/31 2/2/2
f 19/19/32 3/3/32 29/29/33
f 29/29/33 3/3/32 2/2/32
f 30/30/34 23/23/35 27/27/29
f 31/31/36 23/23/35 30/30/34
f 25/25/27 27/27/29 23/23/35
f 32/32/37 18/18/19 33/33/38
f 34/34/39 35/35/40 21/21/41
f 15/15/42 14/14/43 36/36/44
f 37/37/45 38/38/46 39/39/47
f 11/11/11 40/40/48 12/12/12
f 41/41/49 33/33/50 42/42/51
f 43/43/52 31/31/36 30/30/34
f 35/35/40 38/38/53 44/44/54
f 21/21/41 35/35/40 44/44/54
f 12/12/12 26/26/28 25/25/27
f 12/12/12 40/40/48 26/26/28
f 34/34/39 21/21/41 20/20/31
f 28/28/30 34/34/39 20/20/31
f 8/8/8 15/15/42 9/9/9
f 14/14/43 43/43/52 45/45/55
f 43/43/52 30/30/34 45/45/55
f 2/2/56 20/20/22 22/22/24
f 38/38/46 46/46/57 39/39/47
f 10/10/58 42/42/51 33/33/50
f 21/21/23 44/44/45 47/47/23
f 14/14/43 45/45/55 36/36/44
f 28/28/30 2/2/2 1/1/1
f 47/47/23 44/44/45 37/37/45
f 48/48/59 10/10/58 12/12/60
f 49/49/60 48/48/59 12/12/60
f 24/24/61 49/49/61 25/25/61
f 50/50/62 23/23/25 31/31/63
f 50/50/62 51/51/64 23/23/25
f 52/52/65 50/50/62 31/31/63
f 15/15/42 36/36/44 9/9/9
f 52/52/65 31/31/63 43/43/65
f 32/32/37 33/33/38 46/46/66
f 39/39/47 46/46/57 41/41/49
f 22/22/24 21/21/23 47/47/23
f 18/18/19 10/10/10 33/33/38
f 48/48/59 42/42/51 10/10/58
f 35/35/40 53/53/67 38/38/53
f 51/51/64 24/24/26 23/23/25
f 54/54/68 52/52/65 43/43/65
f 54/54/68 43/43/65 14/14/14
f 16/16/16 13/13/13 15/15/15
f 16/16/16 15/15/15 8/8/17
f 53/53/67 32/32/37 46/46/66
f 13/13/13 54/54/68 14/14/14
f 44/44/45 38/38/46 37/37/45
f 49/49/61 12/12/61 25/25/61
f 46/46/57 33/33/50 41/41/49
f 53/53/67 46/46/66 38/38/53
f 55/55/69 56/56/70 48/48/59
f 57/57/71 58/58/72 59/59/73
f 58/58/72 60/60/74 59/59/73
f 61/61/23 37/37/45 62/62/45
f 51/51/64 63/63/26 24/24/26
f 64/64/75 63/63/76 65/65/77
f 63/63/61 64/64/61 24/24/61
f 66/66/78 67/67/79 68/68/80
f 56/56/81 55/55/82 69/69/83
f 70/70/84 50/50/62 52/52/65
f 63/63/76 68/68/80 71/71/85
f 63/63/76 71/71/85 58/58/72
f 72/72/86 70/70/84 52/52/65
f 73/73/87 74/74/88 56/56/81
f 73/73/87 75/75/89 74/74/88
f 62/62/90 75/75/89 76/76/91
f 77/77/92 76/76/91 78/78/93
f 79/79/94 73/73/87 80/80/95
f 80/80/95 69/69/83 81/81/96
f 68/68/97 63/63/26 51/51/64
f 64/64/60 55/55/69 49/49/60
f 37/37/45 39/39/47 62/62/45
f 29/29/56 22/22/24 82/82/98
f 48/48/59 56/56/70 42/42/51
f 66/66/62 51/51/64 50/50/62
f 72/72/99 83/83/100 70/70/101
f 83/83/100 67/67/79 66/66/78
f 55/55/82 64/64/75 84/84/102
f 76/76/91 75/75/89 73/73/87
f 2/2/56 22/22/24 29/29/56
f 70/70/101 83/83/100 66/66/78
f 85/85/103 61/61/104 62/62/90
f 86/86/105 85/85/103 77/77/92
f 77/77/92 85/85/103 76/76/91
f 78/78/93 76/76/91 73/73/87
f 24/24/61 64/64/61 49/49/61
f 85/85/103 62/62/90 76/76/91
f 78/78/93 73/73/87 79/79/94
f 73/73/87 69/69/83 80/80/95
f 41/41/49 42/42/51 74/74/106
f 67/67/79 71/71/85 68/68/80
f 65/65/77 63/63/76 58/58/72
f 72/72/86 52/52/65 54/54/68
f 75/75/107 41/41/49 74/74/106
f 74/74/106 42/42/51 56/56/70
f 69/69/83 84/84/102 81/81/96
f 47/47/23 37/37/45 61/61/23
f 84/84/102 65/65/77 87/87/108
f 73/73/87 56/56/81 69/69/83
f 84/84/102 64/64/75 65/65/77
f 70/70/84 66/66/62 50/50/62
f 69/69/83 55/55/82 84/84/102
f 62/62/45 39/39/47 75/75/107
f 39/39/47 41/41/49 75/75/107
f 22/22/24 47/47/23 82/82/98
f 49/49/60 55/55/69 48/48/59
f 66/66/62 68/68/97 51/51/64
f 86/86/105 88/88/109 85/85/103
f 82/82/98 47/47/23 61/61/23
f 88/88/109 61/61/104 85/85/103
f 81/81/96 84/84/102 87/87/108
f 87/87/108 65/65/77 57/57/71
f 65/65/77 58/58/72 57/57/71
f 88/88/109 82/82/110 61/61/104
f 89/89/111 90/90/112 91/91/113
f 92/92/114 16/16/16 93/93/115
f 17/17/18 19/19/21 94/94/21
f 95/95/116 96/96/117 97/97/118
f 98/98/33 19/19/32 29/29/33
f 29/29/56 82/82/98 98/98/56
f 93/93/115 17/17/18 94/94/21
f 99/99/119 98/98/120 82/82/110
f 89/89/111 91/91/113 60/60/74
f 99/99/119 82/82/110 88/88/109
f 100/100/121 99/99/119 88/88/109
f 100/100/121 88/88/109 86/86/105
f 16/16/16 17/17/18 93/93/115
f 100/100/121 86/86/105 101/101/122
f 101/101/122 86/86/105 102/102/123
f 94/94/32 19/19/32 98/98/33
f 92/92/114 13/13/13 16/16/16
f 103/103/124 104/104/125 105/105/126
f 86/86/105 77/77/92 102/102/123
f 102/102/123 77/77/92 106/106/127
f 67/67/79 89/89/111 71/71/85
f 96/96/117 107/107/128 97/97/118
f 67/67/79 108/108/129 89/89/111
f 108/108/129 90/90/112 89/89/111
f 83/83/100 109/109/130 67/67/79
f 95/95/116 97/97/118 72/72/99
f 57/57/71 59/59/73 110/110/131
f 97/97/118 109/109/130 83/83/100
f 110/110/131 111/111/132 112/112/133
f 113/113/134 112/112/135 91/91/134
f 104/104/125 114/114/136 115/115/137
f 116/116/138 103/103/124 105/105/126
f 117/117/139 118/118/140 116/116/138
f 111/111/132 91/91/113 112/112/133
f 119/119/141 118/118/140 117/117/139
f 120/120/142 121/121/143 96/96/117
f 92/92/144 120/120/142 96/96/117
f 93/93/145 120/120/142 92/92/144
f 95/95/146 54/54/68 13/13/13
f 115/115/147 122/122/148 108/108/129
f 95/95/146 72/72/86 54/54/68
f 59/59/73 111/111/132 110/110/131
f 122/122/149 123/123/150 90/90/150
f 109/109/130 115/115/147 108/108/129
f 108/108/129 122/122/148 90/90/112
f 59/59/73 60/60/74 111/111/132
f 114/114/136 123/123/150 122/122/149
f 92/92/144 96/96/117 95/95/116
f 58/58/72 71/71/85 60/60/74
f 115/115/137 114/114/136 122/122/149
f 92/92/114 95/95/146 13/13/13
f 67/67/79 109/109/130 108/108/129
f 97/97/118 107/107/128 109/109/130
f 107/107/128 115/115/147 109/109/130
f 111/111/132 60/60/74 91/91/113
f 118/118/140 103/103/124 116/116/138
f 107/107/128 105/105/151 115/115/147
f 96/96/117 121/121/143 107/107/128
f 121/121/143 105/105/151 107/107/128
f 123/123/150 113/113/134 91/91/134
f 72/72/99 97/97/118 83/83/100
f 123/123/150 91/91/134 90/90/150
f 71/71/85 89/89/111 60/60/74
f 105/105/126 104/104/125 115/115/137
f 124/124/152 117/117/153 125/125/154
f 126/126/155 127/127/156 128/128/157
f 128/128/157 129/129/158 130/130/159
f 131/131/160 99/99/119 100/100/121
f 132/132/161 133/133/162 112/112/135
f 78/78/93 79/79/94 134/134/163
f 135/135/164 126/126/165 136/136/166
f 113/113/134 132/132/161 112/112/135
f 137/137/167 117/117/153 124/124/152
f 138/138/168 101/101/169 139/139/169
f 57/57/71 110/110/131 140/140/170
f 106/106/127 78/78/93 134/134/163
f 135/135/164 127/127/164 126/126/165
f 101/101/169 102/102/171 141/141/172
f 141/141/172 102/102/171 142/142/173
f 101/101/169 141/141/172 139/139/169
f 143/143/174 144/144/175 137/137/167
f 126/126/165 138/138/168 145/145/176
f 125/125/154 117/117/153 116/116/177
f 110/110/131 112/112/133 133/133/178
f 127/127/156 146/146/179 128/128/157
f 131/131/160 130/130/159 99/99/119
f 102/102/171 106/106/180 142/142/173
f 106/106/127 77/77/92 78/78/93
f 124/124/152 125/125/154 147/147/181
f 148/148/182 144/144/183 149/149/184
f 144/144/183 150/150/185 149/149/184
f 150/150/186 127/127/186 151/151/186
f 150/150/187 144/144/175 146/146/179
f 121/121/143 116/116/177 105/105/151
f 106/106/180 134/134/188 152/152/189
f 106/106/180 152/152/189 142/142/173
f 143/143/174 137/137/167 124/124/152
f 150/150/185 151/151/185 149/149/184
f 146/146/179 143/143/174 129/129/158
f 128/128/157 146/146/179 129/129/158
f 120/120/142 125/125/154 121/121/143
f 126/126/155 128/128/157 131/131/160
f 140/140/170 110/110/131 133/133/178
f 129/129/158 147/147/181 94/94/190
f 137/137/191 144/144/183 148/148/182
f 147/147/181 120/120/142 93/93/145
f 129/129/158 143/143/174 124/124/152
f 130/130/159 129/129/158 94/94/190
f 129/129/158 124/124/152 147/147/181
f 125/125/154 116/116/177 121/121/143
f 138/138/192 131/131/160 100/100/121
f 137/137/191 148/148/182 119/119/141
f 147/147/181 125/125/154 120/120/142
f 127/127/156 150/150/187 146/146/179
f 117/117/139 137/137/191 119/119/141
f 126/126/165 145/145/176 136/136/166
f 99/99/119 130/130/159 98/98/120
f 130/130/159 94/94/190 98/98/120
f 138/138/168 139/139/169 145/145/176
f 126/126/155 131/131/160 138/138/192
f 153/153/193 57/57/71 140/140/170
f 87/87/108 57/57/71 153/153/193
f 138/138/192 100/100/121 101/101/122
f 127/127/186 135/135/186 151/151/186
f 94/94/190 147/147/181 93/93/145
f 146/146/179 144/144/175 143/143/174
f 132/132/161 154/154/162 133/133/162
f 131/131/160 128/128/157 130/130/159
f 155/155/194 156/156/195 157/157/195
f 133/133/196 154/154/196 158/158/196
f 159/159/197 87/87/108 153/153/193
f 160/160/198 153/153/193 161/161/199
f 153/153/193 140/140/170 161/161/199
f 159/159/197 153/153/193 160/160/198
f 134/134/188 155/155/194 162/162/200
f 161/161/201 163/163/202 164/164/203
f 155/155/194 157/157/195 162/162/200
f 161/161/199 140/140/170 158/158/204
f 165/165/205 159/159/197 156/156/206
f 81/81/96 87/87/108 159/159/197
f 165/165/205 81/81/96 159/159/197
f 79/79/94 166/166/207 155/155/208
f 134/134/188 162/162/200 152/152/189
f 158/158/196 154/154/196 163/163/196
f 160/160/209 164/164/203 167/167/210
f 140/140/170 133/133/178 158/158/204
f 155/155/208 165/165/205 156/156/206
f 161/161/201 164/164/203 160/160/209
f 80/80/95 81/81/96 165/165/205
f 155/155/208 166/166/207 165/165/205
f 158/158/202 163/163/202 161/161/201
f 166/166/207 80/80/95 165/165/205
f 79/79/94 80/80/95 166/166/207
f 156/156/211 167/167/210 157/157/212
f 156/156/206 159/159/197 160/160/198
f 160/160/209 167/167/210 156/156/211
f 134/134/163 79/79/94 155/155/208
