# Blender 4.3.0
# www.blender.org
o door_rl_handle_chrome
v 53.881790 -39.112778 8.366257
v 53.822731 -39.158844 8.260490
v 53.632153 -39.137894 8.307026
v 47.024452 -39.242607 8.150555
v 47.218788 -39.259361 8.104015
v 46.834278 -39.276115 8.070175
v 46.614399 -39.259361 8.112473
v 46.508842 -39.351509 7.862972
v 46.267586 -39.343140 7.896812
v 45.899925 -39.648888 7.084797
v 54.084507 -39.133713 8.319721
v 53.873425 -39.213287 8.108242
v 52.135616 -39.146271 8.315495
v 49.375015 -39.196533 8.226658
v 49.421497 -39.217468 8.175934
v 52.000336 -39.171402 8.256264
v 53.475918 -39.791298 7.224350
v 53.391315 -39.862503 7.034031
v 53.475918 -39.858315 7.224350
v 52.000336 -39.410149 8.256264
v 49.421497 -39.456215 8.175934
v 54.139805 -39.196533 8.154778
v 51.374584 -39.979774 6.754913
v 48.939404 -40.021660 6.678772
v 51.374584 -40.046799 6.754913
v 51.374584 -39.741028 6.754913
v 48.859406 -39.799667 6.628044
v 48.939404 -39.782928 6.678772
v 52.000336 -39.472977 8.256264
v 53.632153 -39.443657 8.307026
v 53.873425 -39.452034 8.108242
v 53.822731 -39.397583 8.260490
v 45.828056 -39.732658 6.852169
v 45.603966 -39.820618 6.619579
v 45.536324 -39.749413 6.814098
v 53.708389 -39.556740 7.207428
v 53.873425 -39.519051 8.108242
v 53.475918 -39.552559 7.224350
v 52.034256 -39.435287 8.340874
v 45.616650 -39.657265 7.063641
v 53.023579 -39.954643 6.801441
v 53.649330 -39.414337 8.370483
v 53.391315 -39.623756 7.034031
v 53.217918 -39.674019 6.898697
v 53.023579 -39.715912 6.801441
v 51.467564 -39.757790 6.704151
v 53.023579 -40.017479 6.801441
v 53.217918 -39.979774 6.898697
v 53.632153 -39.380829 8.307026
v 53.217918 -39.916954 6.898697
v 45.895699 -39.799675 6.674534
v 46.064869 -39.828995 6.594200
v 45.790031 -39.854134 6.534981
v 53.230480 -39.728470 6.759140
v 53.442013 -39.686592 6.864861
v 53.619591 -39.632133 7.008652
v 53.391315 -39.929520 7.034031
v 53.822731 -39.464607 8.260490
v 54.084507 -39.322189 8.564995
v 53.911530 -39.447845 8.290104
v 49.421497 -39.523239 8.175934
v 54.507542 -39.879250 7.258194
v 53.568913 -39.858315 7.224350
v 54.211422 -40.009094 6.902931
v 48.939404 -40.084488 6.678772
v 51.345249 -40.076118 6.687229
v 45.828056 -39.975594 6.852169
v 53.467552 -39.937897 7.021336
v 53.319275 -39.996536 6.860630
v 53.146297 -40.097054 6.611118
v 53.759068 -40.063553 6.678768
v 53.061684 -40.042603 6.742218
v 51.294586 -40.134750 6.564594
v 46.064869 -40.067741 6.594200
v 46.064869 -40.134758 6.594200
v 45.895699 -40.105438 6.674534
v 47.218788 -39.498100 8.104015
v 46.834278 -39.514862 8.070175
v 46.508842 -39.594444 7.862972
v 45.899925 -39.887642 7.084797
v 52.110477 -39.355690 8.514271
v 49.501915 -39.405968 8.442356
v 45.895699 -40.038422 6.674534
v 54.592140 -39.351509 8.497356
v 53.970585 -39.510674 8.129398
v 54.769737 -39.598625 7.943298
v 54.782314 -39.447845 8.285877
v 48.910084 -40.117996 6.602665
v 45.828056 -40.038422 6.852169
v 45.899925 -39.950455 7.084797
v 49.447056 -39.481354 8.260494
v 46.804539 -39.560928 8.108246
v 46.432621 -39.661453 7.858742
v 46.508842 -39.657265 7.862972
v 47.218788 -39.560928 8.104015
v 53.831108 -40.071922 6.649151
v 54.296024 -40.013283 6.890240
v 46.834278 -39.577682 8.070175
v 52.139812 -39.322189 8.590385
v 47.345692 -39.447845 8.374718
v 46.927273 -39.456215 8.357796
v 47.248512 -39.535812 8.163239
v 47.375431 -39.422714 8.425434
v 46.956997 -39.435287 8.408524
v 51.273224 -40.155693 6.518059
v 46.956997 -39.179779 8.408524
v 54.579174 -39.879250 7.258194
v 53.179813 -40.117996 6.556126
v 47.375431 -39.171402 8.425434
v 45.768875 -40.042603 6.847942
v 45.844971 -40.122185 6.628044
v 46.030979 -40.151505 6.539207
v 54.177486 -39.305428 8.603065
v 45.806900 -39.954643 7.080570
v 46.267586 -40.201767 6.408112
v 48.871967 -40.168266 6.475796
v 54.685135 -39.338943 8.526962
v 54.837173 -39.607002 7.926380
v 54.858536 -39.439468 8.298569
v 49.527473 -39.380829 8.497360
v 49.527473 -39.125328 8.497360
v 52.139812 -39.070885 8.590385
v 54.177486 -39.054138 8.603065
v 54.685135 -39.087639 8.526962
v 48.855225 -39.933708 6.425034
v 51.273224 -39.904388 6.518059
v 54.858536 -39.188164 8.298569
v 45.899925 -40.197578 6.403881
v 44.082008 -40.155693 6.488491
v 44.048199 -40.176636 6.412338
v 45.912628 -40.214333 6.353115
v 44.018597 -40.193390 6.344650
v 45.912628 -39.963028 6.353115
v 43.650799 -39.912766 6.395416
v 43.650799 -40.164070 6.395416
v 43.426720 -40.117996 6.661850
v 46.364761 -40.218529 6.357346
v 53.179813 -39.862503 6.556126
v 53.831108 -39.820618 6.649151
v 43.553543 -40.004913 7.004417
v 43.528206 -40.113815 6.670307
v 44.179264 -40.092865 6.721073
v 48.855225 -40.185013 6.425034
v 54.296024 -39.761978 6.890240
v 54.579174 -39.627945 7.258194
v 46.364761 -39.967216 6.357346
v 44.018597 -39.942085 6.344650
v 43.439423 -39.753609 7.000191
v 43.426720 -39.866699 6.661850
v 43.439423 -40.004913 7.000191
v 43.705753 -40.159882 6.454647
v 43.803009 -39.761978 7.651493
v 44.005913 -39.372459 7.998299
v 43.803009 -39.510674 7.651493
v 44.005913 -39.623756 7.998299
v 44.318790 -39.988159 7.029804
v 43.908688 -39.757790 7.655727
v 44.627388 -39.720093 7.714951
v 44.762669 -39.607002 8.015221
v 54.837173 -39.355690 7.926380
v 44.415997 -39.531609 8.222431
v 44.889507 -39.498100 8.294346
v 44.864170 -39.519051 8.230888
v 44.170792 -39.619568 8.002525
v 44.889507 -39.242607 8.294346
v 44.415997 -39.280304 8.222431
v 44.454067 -39.552559 8.163239
vn 0.0020 0.9174 -0.3979
vn -0.0030 0.9254 -0.3790
vn -0.0058 0.9291 -0.3699
vn -0.0074 0.9294 -0.3691
vn -0.0067 0.9316 -0.3635
vn -0.0015 0.9283 -0.3717
vn -0.0008 0.9367 -0.3501
vn -0.0121 0.9390 -0.3437
vn -0.0146 0.9385 -0.3451
vn -0.0028 0.9380 -0.3467
vn -0.0014 0.9323 -0.3616
vn -0.0018 0.9360 -0.3520
vn -0.0070 0.9262 -0.3769
vn -0.0048 0.9229 -0.3851
vn -0.0046 0.9229 -0.3851
vn -0.0049 0.9245 -0.3811
vn -0.9129 -0.0000 0.4082
vn -0.7880 -0.0000 0.6156
vn -0.9131 -0.0000 0.4077
vn 0.0311 -0.0000 -0.9995
vn 0.0319 -0.0000 -0.9995
vn 0.0034 0.9346 -0.3557
vn -0.0297 -0.0000 0.9996
vn -0.0303 -0.0000 0.9995
vn -0.0057 0.9465 -0.3228
vn -0.0064 0.9524 -0.3048
vn -0.0068 0.9528 -0.3037
vn 0.0596 -0.0000 -0.9982
vn -0.1077 -0.0000 -0.9942
vn -0.9488 -0.0000 -0.3159
vn -0.0048 0.9384 -0.3454
vn -0.0035 0.9355 -0.3534
vn -0.0088 0.9385 -0.3452
vn -0.0080 0.9354 -0.3535
vn -0.9120 -0.0000 0.4102
vn -0.0075 0.9360 -0.3519
vn 0.0046 -0.9120 0.4102
vn 0.0037 -0.9138 0.4061
vn 0.0033 -0.9082 0.4185
vn -0.0046 0.9388 -0.3445
vn -0.2436 -0.0000 0.9699
vn 0.0055 -0.9079 0.4192
vn -0.8136 -0.0000 0.5815
vn -0.5450 -0.0000 0.8384
vn -0.2569 -0.0000 0.9664
vn -0.0054 0.9466 -0.3223
vn -0.2300 -0.0000 0.9732
vn -0.5232 -0.0000 0.8522
vn -0.9127 -0.0000 0.4086
vn -0.2372 -0.0000 -0.9715
vn -0.1040 -0.0000 -0.9946
vn -0.1002 -0.0000 -0.9950
vn -0.5340 -0.0000 0.8455
vn -0.0035 0.9339 -0.3576
vn -0.0058 0.9301 -0.3673
vn -0.0014 0.9317 -0.3633
vn -0.0073 0.9329 -0.3601
vn -0.0103 0.9331 -0.3596
vn -0.0084 0.9466 -0.3224
vn -0.0030 0.9372 -0.3487
vn -0.0023 0.9360 -0.3521
vn -0.0059 0.9368 -0.3498
vn -0.7592 -0.0000 0.6509
vn -0.9120 -0.0000 0.4101
vn 0.2154 -0.0000 0.9765
vn 0.0043 -0.9149 0.4037
vn 0.0195 -0.9199 0.3917
vn -0.0122 -0.9314 0.3637
vn -0.0159 -0.9300 0.3673
vn -0.0182 -0.9496 0.3129
vn 0.0039 -0.9182 0.3961
vn 0.0027 -0.9156 0.4020
vn 0.0028 -0.9105 0.4135
vn 0.9345 -0.0000 0.3558
vn 0.9345 -0.0000 0.3559
vn -0.0268 -0.9330 0.3589
vn -0.0056 -0.9307 0.3656
vn 0.0072 -0.9289 0.3703
vn -0.0033 -0.9490 0.3154
vn -0.0014 -0.9224 0.3861
vn 0.0032 -0.9081 0.4187
vn 0.2055 -0.0000 0.9787
vn 0.1945 -0.0000 0.9809
vn 0.4290 -0.0000 0.9033
vn 0.0602 -0.0000 -0.9982
vn 0.3216 -0.0000 -0.9469
vn 0.3032 -0.0000 -0.9529
vn 0.6515 -0.0000 -0.7587
vn 0.6720 -0.0000 -0.7406
vn 0.8684 -0.0000 -0.4959
vn 0.9554 -0.0000 -0.2952
vn 0.8862 -0.0000 -0.4634
vn 0.0054 -0.9128 0.4083
vn 0.0049 -0.9172 0.3983
vn 0.0344 -0.9131 0.4064
vn -0.0047 -0.9319 0.3627
vn -0.0369 -0.9282 0.3702
vn 0.4289 -0.0000 0.9033
vn -0.0122 -0.9263 0.3765
vn -0.0024 -0.9211 0.3893
vn -0.0032 -0.9157 0.4019
vn -0.0029 -0.9276 0.3735
vn -0.0126 -0.9193 0.3932
vn 0.0093 -0.9332 0.3591
vn 0.0129 -0.9116 0.4109
vn -0.0059 -0.9553 0.2956
vn 0.0019 -0.9228 0.3852
vn 0.9025 -0.0000 -0.4307
vn 0.0043 -0.9111 0.4122
vn 0.0030 -0.8967 0.4426
vn -0.0013 -0.9223 0.3864
vn 0.0171 -0.9373 0.3480
vn 0.0315 -0.9427 0.3321
vn 0.0607 -0.0000 -0.9982
vn -0.0027 -0.9640 0.2660
vn 0.0008 -0.9475 0.3197
vn -0.0070 -0.9173 0.3982
vn 0.0056 -0.9161 0.4010
vn 0.0037 -0.9210 0.3894
vn 0.0060 -0.9119 0.4103
vn 0.0051 -0.9245 0.3811
vn 0.0039 -0.9224 0.3863
vn 0.0054 -0.8974 0.4412
vn 0.0048 -0.9242 0.3819
vn 0.0015 -0.9127 0.4087
vn -0.0369 -0.0000 0.9993
vn -0.0476 -0.0000 0.9989
vn -0.0479 -0.0000 0.9989
vn 0.6911 -0.0000 -0.7227
vn 0.3388 -0.0000 -0.9409
vn -0.0006 -0.9302 0.3671
vn 0.0113 -0.9326 0.3608
vn -0.0368 -0.0000 0.9993
vn 0.0185 -0.9370 0.3487
vn 0.0005 -0.9449 0.3275
vn 0.0038 -0.9423 0.3346
vn -0.0063 -0.9474 0.3200
vn 0.0012 -0.9165 0.4001
vn 0.0153 -0.9372 0.3484
vn 0.0271 -0.9408 0.3378
vn -0.0047 -0.9446 0.3282
vn 0.0013 -0.9401 0.3409
vn -0.0019 -0.9132 0.4076
vn -0.0127 -0.9193 0.3932
vn 0.0309 -0.9095 0.4146
vn -0.0345 -0.0000 0.9994
vn -0.0210 -0.0000 0.9998
vn -0.0208 -0.0000 0.9998
vn 0.0053 -0.9105 0.4135
vn 0.0726 -0.0000 0.9974
vn 0.0698 -0.0000 0.9976
vn 0.1483 -0.0000 0.9889
vn 0.0390 -0.9336 0.3563
vn 0.0293 -0.0000 -0.9996
vn 0.0329 -0.0000 -0.9995
vn 0.0291 -0.0000 -0.9996
vn 0.7965 -0.0000 0.6047
vn -0.0087 -0.9486 0.3163
vn -0.0101 -0.9633 0.2681
vn -0.0130 -0.9661 0.2579
vn 0.0069 -0.0000 -1.0000
vn -0.0642 -0.0000 -0.9979
vn -0.7653 -0.0000 -0.6437
vn 0.0013 -0.9488 0.3158
vn 0.0791 -0.0000 -0.9969
vn 0.2957 -0.0000 -0.9553
vn 0.0825 -0.0000 -0.9966
vn 0.3140 -0.0000 -0.9494
vn -0.0028 -0.9431 0.3325
vn 0.0100 -0.9669 0.2549
vn 0.0028 -0.9574 0.2886
vn 0.0328 -0.0000 -0.9995
vn 0.6189 -0.0000 -0.7855
vn 0.6616 -0.0000 -0.7499
vn 0.8563 -0.0000 -0.5164
vn 0.9682 -0.0000 -0.2502
vn 0.8855 -0.0000 -0.4647
vn 0.0183 -0.0000 -0.9998
vn -0.0121 -0.9510 0.3090
vn -0.0179 -0.9710 0.2384
vn -0.0683 -0.0000 -0.9977
vn -0.1367 -0.0000 -0.9906
vn -0.9486 -0.0000 0.3166
vn -0.9993 -0.0000 0.0375
vn -0.9748 -0.0000 0.2229
vn 0.0024 -0.9499 0.3126
vn -0.0393 -0.9835 0.1765
vn -0.0607 -0.9879 0.1428
vn -0.0096 -0.9443 0.3291
vn -0.8692 -0.0000 0.4944
vn -0.8631 -0.0000 0.5050
vn -0.8672 -0.0000 0.4980
vn 0.0094 -0.9410 0.3383
vn 0.0191 -0.9349 0.3544
vn 0.0109 -0.9351 0.3543
vn 0.0082 -0.9323 0.3616
vn 0.9848 -0.0000 -0.1735
vn 0.0175 -0.9637 0.2664
vn 0.0216 -0.9369 0.3490
vn 0.9984 -0.0000 -0.0573
vn -0.3333 -0.0000 0.9428
vn -0.4796 -0.0000 0.8775
vn 0.0152 -0.9329 0.3599
vn 0.0137 -0.9509 0.3091
vn 0.0217 -0.9382 0.3453
vn 0.0123 -0.9399 0.3412
vn 0.0157 -0.9338 0.3574
vn -0.1011 -0.0000 0.9949
vn -0.3046 -0.0000 0.9525
vn -0.1043 -0.0000 0.9945
vn 0.0178 -0.9344 0.3558
vt 0.687235 0.795166
vt 0.682176 0.798429
vt 0.679667 0.785449
vt 0.571069 0.416046
vt 0.568894 0.425318
vt 0.568986 0.404174
vt 0.568350 0.403230
vt 0.579022 0.381849
vt 0.594294 0.386873
vt 0.646810 0.349869
vt 0.690975 0.797814
vt 0.686618 0.807678
vt 0.654592 0.695053
vt 0.606293 0.540196
vt 0.603791 0.543946
vt 0.648604 0.688163
vt 0.729423 0.813240
vt 0.737982 0.807271
vt 0.731724 0.815555
vt 0.634232 0.692189
vt 0.590237 0.548063
vt 0.692817 0.800217
vt 0.737756 0.683798
vt 0.722653 0.538513
vt 0.741647 0.683366
vt 0.723239 0.685356
vt 0.704863 0.534322
vt 0.708558 0.539453
vt 0.630504 0.693118
vt 0.658388 0.800264
vt 0.681427 0.819779
vt 0.671570 0.811406
vt 0.670221 0.345156
vt 0.680981 0.358425
vt 0.672446 0.361423
vt 0.717587 0.799992
vt 0.681497 0.823501
vt 0.721842 0.806466
vt 0.625753 0.696745
vt 0.659361 0.363899
vt 0.747662 0.784405
vt 0.653866 0.803209
vt 0.728679 0.802242
vt 0.733622 0.795146
vt 0.732408 0.783715
vt 0.720605 0.690872
vt 0.751656 0.784422
vt 0.747792 0.797534
vt 0.662740 0.797500
vt 0.744300 0.796793
vt 0.685333 0.349612
vt 0.690375 0.363965
vt 0.682099 0.356315
vt 0.729980 0.792397
vt 0.726804 0.796691
vt 0.722753 0.799775
vt 0.741249 0.808981
vt 0.668135 0.816552
vt 0.645817 0.841038
vt 0.665937 0.824157
vt 0.586408 0.549396
vt 0.734043 0.867494
vt 0.731878 0.819711
vt 0.752496 0.851269
vt 0.726642 0.538579
vt 0.745686 0.681088
vt 0.680527 0.326318
vt 0.742803 0.813091
vt 0.751181 0.803030
vt 0.765718 0.790148
vt 0.763763 0.826641
vt 0.756078 0.786128
vt 0.753390 0.677003
vt 0.711163 0.355040
vt 0.718644 0.353383
vt 0.707492 0.332987
vt 0.553410 0.425531
vt 0.554625 0.396871
vt 0.572242 0.368579
vt 0.651309 0.326063
vt 0.615888 0.704801
vt 0.571800 0.559935
vt 0.701208 0.337187
vt 0.656637 0.873406
vt 0.678521 0.829203
vt 0.693438 0.881820
vt 0.671679 0.882994
vt 0.731568 0.536693
vt 0.683541 0.319498
vt 0.650515 0.320091
vt 0.581628 0.552882
vt 0.548084 0.390697
vt 0.572566 0.356539
vt 0.570982 0.363470
vt 0.548871 0.425640
vt 0.765730 0.830460
vt 0.753504 0.855534
vt 0.550704 0.393839
vt 0.611367 0.708098
vt 0.530428 0.438067
vt 0.524354 0.404753
vt 0.544605 0.428314
vt 0.526818 0.441195
vt 0.520203 0.407934
vt 0.756233 0.675330
vt 0.496785 0.412379
vt 0.734340 0.871406
vt 0.769533 0.791790
vt 0.509442 0.446773
vt 0.684266 0.311900
vt 0.713632 0.327298
vt 0.725332 0.349728
vt 0.644397 0.848036
vt 0.651069 0.311211
vt 0.738724 0.367232
vt 0.739782 0.533792
vt 0.655466 0.879379
vt 0.694633 0.885892
vt 0.671044 0.887942
vt 0.568971 0.562668
vt 0.554731 0.567662
vt 0.595918 0.712433
vt 0.627310 0.852600
vt 0.639803 0.887535
vt 0.758278 0.532370
vt 0.771615 0.673992
vt 0.660041 0.902165
vt 0.740888 0.334807
vt 0.732948 0.107137
vt 0.742464 0.103161
vt 0.745394 0.335318
vt 0.751050 0.099652
vt 0.773266 0.336086
vt 0.767779 0.033347
vt 0.741951 0.058042
vt 0.715017 0.033959
vt 0.743904 0.374967
vt 0.786144 0.792843
vt 0.780596 0.836966
vt 0.674778 0.043626
vt 0.712902 0.045196
vt 0.704815 0.117973
vt 0.742978 0.532662
vt 0.762800 0.867448
vt 0.737311 0.886314
vt 0.763451 0.376668
vt 0.786144 0.091624
vt 0.661500 0.000191
vt 0.718732 0.000473
vt 0.676506 0.030245
vt 0.735810 0.063893
vt 0.588515 0.069221
vt 0.518090 0.082669
vt 0.563164 0.046764
vt 0.546323 0.095805
vt 0.666383 0.132084
vt 0.588010 0.082362
vt 0.580516 0.164033
vt 0.546026 0.179280
vt 0.691039 0.902439
vt 0.521090 0.142500
vt 0.514694 0.194344
vt 0.521757 0.191100
vt 0.546714 0.114377
vt 0.486625 0.194520
vt 0.492051 0.138035
vt 0.528143 0.146383
s 1
f 1/1/1 2/2/2 3/3/3
f 4/4/4 5/5/5 6/6/6
f 4/4/4 6/6/6 7/7/7
f 7/7/7 6/6/6 8/8/8
f 9/9/9 8/8/8 10/10/10
f 11/11/11 12/12/12 2/2/2
f 1/1/1 11/11/11 2/2/2
f 1/1/1 3/3/3 13/13/13
f 14/14/14 15/15/15 5/5/5
f 7/7/7 8/8/8 9/9/9
f 13/13/13 3/3/3 16/16/16
f 13/13/13 16/16/16 14/14/14
f 16/16/16 15/15/15 14/14/14
f 14/14/14 5/5/5 4/4/4
f 17/17/17 18/18/18 19/19/19
f 20/20/20 21/21/21 15/15/21
f 11/11/11 22/22/22 12/12/12
f 23/23/23 24/24/24 25/25/23
f 26/26/25 27/27/26 28/28/27
f 21/21/21 5/5/28 15/15/21
f 20/20/20 29/29/20 21/21/21
f 30/30/29 29/29/20 20/20/20
f 12/12/30 31/31/30 32/32/30
f 33/33/31 34/34/32 35/35/33
f 22/22/22 36/36/34 12/12/12
f 2/2/30 12/12/30 32/32/30
f 37/37/35 17/17/17 19/19/19
f 12/12/12 36/36/34 38/38/36
f 39/39/37 29/29/38 30/30/39
f 9/9/9 10/10/10 40/40/40
f 41/41/41 26/26/23 23/23/23
f 42/42/42 39/39/37 30/30/39
f 43/43/43 44/44/44 18/18/18
f 45/45/45 26/26/23 41/41/41
f 26/26/25 46/46/46 27/27/26
f 47/47/47 23/23/23 25/25/23
f 48/48/48 41/41/41 47/47/47
f 38/38/49 43/43/43 17/17/17
f 2/2/50 49/49/51 3/3/52
f 50/50/53 45/45/45 41/41/41
f 10/10/10 33/33/31 40/40/40
f 40/40/40 33/33/31 35/35/33
f 51/51/54 52/52/55 53/53/56
f 44/44/57 54/54/58 45/45/59
f 43/43/60 55/55/61 44/44/57
f 43/43/60 56/56/62 55/55/61
f 18/18/18 50/50/53 57/57/63
f 19/19/19 18/18/18 57/57/63
f 28/28/27 27/27/26 52/52/55
f 58/58/50 30/30/29 32/32/50
f 33/33/31 51/51/54 34/34/32
f 43/43/43 18/18/18 17/17/17
f 44/44/44 45/45/45 50/50/53
f 57/57/63 50/50/53 48/48/48
f 32/32/30 31/31/30 58/58/30
f 32/32/50 30/30/29 49/49/51
f 30/30/29 20/20/20 49/49/51
f 38/38/36 36/36/34 56/56/62
f 18/18/18 44/44/44 50/50/53
f 23/23/23 28/28/24 24/24/24
f 49/49/51 16/16/20 3/3/52
f 26/26/23 28/28/24 23/23/23
f 44/44/57 55/55/61 54/54/58
f 45/45/59 54/54/58 46/46/46
f 51/51/54 53/53/56 34/34/32
f 38/38/36 56/56/62 43/43/60
f 32/32/50 49/49/51 2/2/50
f 12/12/64 38/38/49 31/31/35
f 27/27/26 53/53/56 52/52/55
f 28/28/24 52/52/65 24/24/24
f 41/41/41 23/23/23 47/47/47
f 50/50/53 41/41/41 48/48/48
f 45/45/59 46/46/46 26/26/25
f 31/31/35 17/17/17 37/37/35
f 31/31/30 37/37/30 58/58/30
f 49/49/51 20/20/20 16/16/20
f 20/20/20 15/15/21 16/16/20
f 31/31/35 38/38/49 17/17/17
f 59/59/66 42/42/42 60/60/67
f 29/29/20 61/61/21 21/21/21
f 62/62/68 63/63/69 64/64/70
f 25/25/71 65/65/72 66/66/73
f 33/33/74 67/67/75 51/51/75
f 63/63/69 68/68/76 64/64/70
f 69/69/77 70/70/78 71/71/79
f 69/69/77 72/72/80 70/70/78
f 72/72/80 73/73/81 70/70/78
f 65/65/24 74/74/82 75/75/83
f 74/74/82 76/76/84 75/75/83
f 77/77/85 78/78/86 6/6/87
f 8/8/88 79/79/89 10/10/90
f 33/33/91 80/80/92 67/67/91
f 61/61/21 77/77/85 21/21/21
f 81/81/93 82/82/94 39/39/37
f 42/42/42 30/30/39 58/58/95
f 19/19/96 57/57/97 68/68/76
f 52/52/65 51/51/98 83/83/84
f 48/48/99 47/47/100 72/72/80
f 84/84/101 60/60/67 85/85/102
f 85/85/102 62/62/68 86/86/103
f 85/85/102 37/37/104 63/63/69
f 59/59/66 81/81/93 42/42/42
f 87/87/105 85/85/102 86/86/103
f 42/42/42 58/58/95 60/60/67
f 68/68/76 71/71/79 64/64/70
f 65/65/72 75/75/106 88/88/107
f 81/81/93 39/39/37 42/42/42
f 60/60/67 37/37/104 85/85/102
f 84/84/101 85/85/102 87/87/105
f 74/74/82 83/83/84 76/76/84
f 83/83/75 89/89/75 76/76/75
f 78/78/86 79/79/89 8/8/88
f 67/67/75 89/89/75 83/83/75
f 90/90/108 89/89/91 67/67/91
f 24/24/24 52/52/65 74/74/82
f 66/66/73 88/88/107 73/73/81
f 80/80/92 90/90/108 67/67/91
f 24/24/24 74/74/82 65/65/24
f 72/72/80 66/66/73 73/73/81
f 82/82/94 91/91/109 39/39/37
f 60/60/67 58/58/95 37/37/104
f 59/59/66 60/60/67 84/84/101
f 57/57/97 69/69/77 68/68/76
f 51/51/75 67/67/75 83/83/75
f 85/85/102 63/63/69 62/62/68
f 79/79/89 80/80/92 10/10/90
f 47/47/100 66/66/73 72/72/80
f 52/52/65 83/83/84 74/74/82
f 68/68/76 69/69/77 71/71/79
f 21/21/21 77/77/85 5/5/28
f 10/10/90 80/80/92 33/33/91
f 66/66/73 65/65/72 88/88/107
f 37/37/104 19/19/96 63/63/69
f 77/77/85 6/6/87 5/5/28
f 25/25/23 24/24/24 65/65/24
f 19/19/96 68/68/76 63/63/69
f 48/48/99 72/72/80 69/69/77
f 78/78/86 8/8/88 6/6/87
f 91/91/109 61/61/110 29/29/38
f 39/39/37 91/91/109 29/29/38
f 57/57/97 48/48/99 69/69/77
f 47/47/100 25/25/71 66/66/73
f 92/92/111 93/93/112 94/94/113
f 95/95/114 78/78/86 77/77/85
f 64/64/70 96/96/115 97/97/116
f 92/92/111 94/94/113 98/98/117
f 99/99/118 81/81/93 59/59/66
f 92/92/111 98/98/117 95/95/119
f 100/100/120 101/101/121 102/102/122
f 103/103/123 104/104/124 100/100/120
f 70/70/78 73/73/81 105/105/125
f 103/103/126 106/106/127 104/104/128
f 62/62/68 64/64/70 97/97/116
f 79/79/89 94/94/129 80/80/92
f 95/95/114 98/98/130 78/78/86
f 107/107/131 62/62/68 97/97/116
f 70/70/78 105/105/125 108/108/132
f 109/109/133 106/106/127 103/103/126
f 82/82/94 100/100/120 91/91/109
f 110/110/134 111/111/135 76/76/136
f 100/100/120 102/102/122 91/91/109
f 88/88/107 75/75/106 112/112/137
f 113/113/138 99/99/118 59/59/66
f 93/93/112 114/114/139 90/90/140
f 76/76/136 111/111/135 112/112/137
f 88/88/107 115/115/141 116/116/142
f 91/91/109 102/102/122 61/61/110
f 71/71/79 108/108/132 96/96/115
f 117/117/143 84/84/101 87/87/105
f 87/87/105 86/86/103 118/118/144
f 104/104/124 101/101/121 100/100/120
f 119/119/145 87/87/105 118/118/144
f 120/120/146 109/109/133 103/103/126
f 120/120/146 121/121/146 109/109/133
f 99/99/147 121/121/146 120/120/146
f 122/122/148 121/121/146 99/99/147
f 99/99/118 120/120/149 81/81/93
f 113/113/150 122/122/148 99/99/147
f 88/88/107 112/112/137 115/115/141
f 61/61/110 102/102/122 95/95/119
f 101/101/121 92/92/111 102/102/122
f 102/102/122 92/92/111 95/95/119
f 123/123/151 122/122/148 113/113/150
f 124/124/152 123/123/151 113/113/150
f 124/124/152 113/113/150 117/117/152
f 86/86/103 62/62/68 107/107/131
f 120/120/149 103/103/123 82/82/94
f 76/76/136 112/112/137 75/75/106
f 82/82/94 103/103/123 100/100/120
f 64/64/70 71/71/79 96/96/115
f 117/117/143 87/87/105 119/119/145
f 113/113/138 84/84/101 117/117/143
f 71/71/79 70/70/78 108/108/132
f 98/98/130 79/79/89 78/78/86
f 86/86/103 107/107/131 118/118/144
f 73/73/81 116/116/142 105/105/125
f 81/81/93 120/120/149 82/82/94
f 98/98/130 94/94/129 79/79/89
f 89/89/153 110/110/134 76/76/136
f 90/90/140 114/114/139 89/89/153
f 61/61/21 95/95/114 77/77/85
f 94/94/129 90/90/108 80/80/92
f 113/113/138 59/59/66 84/84/101
f 94/94/113 93/93/112 90/90/140
f 114/114/139 110/110/134 89/89/153
f 88/88/107 116/116/142 73/73/81
f 105/105/154 125/125/155 126/126/156
f 127/127/157 117/117/157 119/119/157
f 111/111/135 128/128/158 112/112/137
f 129/129/159 130/130/160 128/128/158
f 131/131/161 132/132/162 133/133/161
f 134/134/163 135/135/163 136/136/163
f 116/116/142 115/115/141 137/137/164
f 111/111/135 129/129/159 128/128/158
f 108/108/165 105/105/154 126/126/156
f 96/96/166 138/138/167 139/139/168
f 140/140/169 141/141/170 142/142/171
f 124/124/157 117/117/157 127/127/157
f 105/105/154 143/143/172 125/125/155
f 97/97/173 96/96/166 139/139/168
f 144/144/174 107/107/175 97/97/173
f 118/118/176 107/107/175 145/145/177
f 137/137/178 131/131/161 146/146/178
f 130/130/160 131/131/179 128/128/158
f 130/130/160 132/132/180 131/131/179
f 147/147/181 135/135/182 134/134/182
f 148/148/183 149/149/184 150/150/185
f 105/105/125 116/116/142 143/143/186
f 151/151/187 132/132/180 130/130/160
f 132/132/162 135/135/182 147/147/181
f 110/110/134 142/142/171 111/111/135
f 96/96/166 108/108/165 138/138/167
f 108/108/165 126/126/156 138/138/167
f 141/141/170 135/135/188 151/151/187
f 145/145/177 107/107/175 144/144/174
f 149/149/163 134/134/163 136/136/163
f 115/115/141 128/128/158 131/131/179
f 129/129/159 151/151/187 130/130/160
f 142/142/171 129/129/159 111/111/135
f 140/140/169 150/150/189 141/141/170
f 148/148/183 150/150/185 152/152/190
f 153/153/191 154/154/192 155/155/191
f 156/156/193 140/140/169 142/142/171
f 157/157/194 140/140/169 156/156/193
f 158/158/195 157/157/194 156/156/193
f 154/154/192 152/152/190 155/155/191
f 159/159/196 158/158/195 93/93/112
f 160/160/197 118/118/176 145/145/177
f 143/143/172 137/137/178 146/146/178
f 115/115/141 131/131/179 137/137/164
f 116/116/142 137/137/164 143/143/186
f 149/149/184 136/136/184 150/150/185
f 150/150/189 136/136/198 141/141/170
f 141/141/170 136/136/198 135/135/188
f 142/142/171 151/151/187 129/129/159
f 142/142/171 141/141/170 151/151/187
f 154/154/192 148/148/183 152/152/190
f 158/158/195 156/156/193 114/114/139
f 152/152/199 150/150/189 140/140/169
f 93/93/112 158/158/195 114/114/139
f 156/156/193 142/142/171 110/110/134
f 160/160/197 119/119/200 118/118/176
f 97/97/173 139/139/168 144/144/174
f 133/133/161 132/132/162 147/147/181
f 127/127/200 119/119/200 160/160/197
f 146/146/178 131/131/161 133/133/161
f 151/151/187 135/135/188 132/132/180
f 114/114/139 156/156/193 110/110/134
f 143/143/172 146/146/178 125/125/155
f 112/112/137 128/128/158 115/115/141
f 161/161/201 153/153/202 155/155/202
f 155/155/203 152/152/199 157/157/194
f 162/162/204 161/161/205 163/163/206
f 157/157/194 152/152/199 140/140/169
f 164/164/207 155/155/203 157/157/194
f 165/165/208 166/166/209 162/162/210
f 161/161/205 155/155/203 164/164/207
f 167/167/211 164/164/207 159/159/196
f 92/92/111 159/159/196 93/93/112
f 163/163/206 159/159/196 92/92/111
f 162/162/210 166/166/209 161/161/201
f 159/159/196 164/164/207 158/158/195
f 163/163/206 161/161/205 167/167/211
f 164/164/207 157/157/194 158/158/195
f 163/163/206 167/167/211 159/159/196
f 101/101/121 163/163/206 92/92/111
f 101/101/121 162/162/204 163/163/206
f 106/106/127 165/165/208 104/104/128
f 161/161/205 164/164/207 167/167/211
f 166/166/209 153/153/202 161/161/201
f 104/104/124 162/162/204 101/101/121
f 104/104/128 165/165/208 162/162/210
