# Blender 4.3.0
# www.blender.org
o door_fr_mirror
v -17.815689 46.018181 15.604225
v -19.053249 41.804466 16.100479
v -17.891708 45.754311 14.259651
v -17.988876 45.360596 13.513145
v -19.053249 41.871483 13.262886
v -18.086006 45.033897 12.762402
v -18.009987 45.360596 16.601002
v -18.335228 44.242271 17.495945
v -19.070164 41.737450 16.999702
v -19.053249 41.871483 12.317047
v -19.053249 41.804466 14.208759
v -19.053249 41.737450 17.945576
v -19.788200 39.236938 18.344276
v -20.134537 38.118622 17.445057
v -20.020527 38.709190 12.015888
v -20.269703 37.657890 16.452560
v -20.214787 37.917572 14.208759
v -20.155697 38.181442 13.114445
vn 0.9595 -0.2817 0.0011
vn 0.9592 -0.2827 -0.0019
vn 0.9594 -0.2820 0.0095
vn 0.9581 -0.2862 0.0136
vn 0.9570 -0.2899 -0.0110
vn 0.9564 -0.2921 0.0029
vn 0.9596 -0.2815 0.0001
vn 0.9598 -0.2807 -0.0045
vn 0.9595 -0.2817 -0.0093
vn 0.9563 -0.2925 -0.0000
vn 0.9582 -0.2858 -0.0087
vn 0.9593 -0.2817 -0.0172
vn 0.9587 -0.2840 -0.0162
vn 0.9593 -0.2823 -0.0049
vn 0.9579 -0.2865 -0.0166
vn 0.9594 -0.2819 -0.0049
vn 0.9586 -0.2846 -0.0114
vn 0.9581 -0.2859 -0.0183
vt 0.195427 0.733318
vt 0.198955 0.750423
vt 0.190234 0.734880
vt 0.187440 0.736742
vt 0.187763 0.751188
vt 0.184608 0.738353
vt 0.199596 0.735659
vt 0.203535 0.739921
vt 0.202518 0.750373
vt 0.184041 0.751527
vt 0.191510 0.751102
vt 0.206240 0.750015
vt 0.208743 0.760129
vt 0.205624 0.765058
vt 0.184041 0.764650
vt 0.201890 0.767304
vt 0.192964 0.767067
vt 0.188560 0.766398
s 1
f 1/1/1 2/2/2 3/3/3
f 4/4/4 5/5/5 6/6/6
f 1/1/1 7/7/7 2/2/2
f 7/7/7 8/8/8 9/9/9
f 6/6/6 5/5/5 10/10/10
f 3/3/3 11/11/11 4/4/4
f 12/12/12 13/13/13 9/9/9
f 9/9/9 13/13/13 14/14/14
f 2/2/2 9/9/9 14/14/14
f 3/3/3 2/2/2 11/11/11
f 8/8/8 12/12/12 9/9/9
f 7/7/7 9/9/9 2/2/2
f 4/4/4 11/11/11 5/5/5
f 5/5/5 15/15/15 10/10/10
f 2/2/2 14/14/14 16/16/16
f 2/2/2 16/16/16 17/17/17
f 2/2/2 17/17/17 11/11/11
f 11/11/11 17/17/17 18/18/18
f 5/5/5 11/11/11 18/18/18
f 5/5/5 18/18/18 15/15/15
