# Blender 4.3.0
# www.blender.org
o door_fl_mirror
v -20.085529 -38.815392 12.011833
v -19.117363 -41.977600 13.255260
v -19.117363 -41.977600 12.312141
v -18.149246 -45.135696 12.756199
v -18.051991 -45.466591 13.504765
v -19.117363 -41.910583 16.084602
v -17.954777 -45.860306 14.249096
v -19.117363 -41.910583 14.198376
v -20.220818 -38.287651 13.107197
v -20.279999 -38.023781 14.198376
v -18.073143 -45.466591 16.583618
v -17.878670 -46.124168 15.589779
v -20.334946 -37.759895 16.435596
v -20.199665 -38.220634 17.425247
v -19.134285 -41.843651 16.981190
v -19.852985 -39.343140 18.321835
v -19.117363 -41.843651 17.924301
v -18.398663 -44.348267 17.476013
vn 0.9579 0.2867 -0.0167
vn 0.9569 0.2902 -0.0110
vn 0.9561 0.2929 -0.0000
vn 0.9563 0.2925 0.0043
vn 0.9580 0.2865 0.0143
vn 0.9592 0.2828 -0.0020
vn 0.9593 0.2823 0.0095
vn 0.9582 0.2861 -0.0087
vn 0.9580 0.2862 -0.0184
vn 0.9585 0.2848 -0.0117
vn 0.9595 0.2818 0.0001
vn 0.9594 0.2819 0.0011
vn 0.9594 0.2819 -0.0052
vn 0.9593 0.2822 -0.0047
vn 0.9594 0.2818 -0.0093
vn 0.9587 0.2839 -0.0156
vn 0.9593 0.2820 -0.0172
vn 0.9597 0.2810 -0.0045
vt 0.562506 0.729138
vt 0.566218 0.742598
vt 0.562506 0.742261
vt 0.563073 0.755420
vt 0.565896 0.757045
vt 0.577377 0.743357
vt 0.568681 0.758906
vt 0.569953 0.742683
vt 0.567012 0.727387
vt 0.571404 0.726716
vt 0.578016 0.758122
vt 0.573860 0.760466
vt 0.580305 0.726458
vt 0.584029 0.728702
vt 0.580931 0.743406
vt 0.587138 0.733646
vt 0.584641 0.743762
vt 0.581945 0.753857
s 1
f 1/1/1 2/2/2 3/3/3
f 2/2/2 4/4/4 3/3/3
f 2/2/2 5/5/5 4/4/4
f 6/6/6 7/7/7 8/8/8
f 9/9/9 2/2/2 1/1/1
f 8/8/8 7/7/7 5/5/5
f 9/9/9 8/8/8 2/2/2
f 10/10/10 8/8/8 9/9/9
f 6/6/6 11/11/11 12/12/12
f 10/10/10 6/6/6 8/8/8
f 8/8/8 5/5/5 2/2/2
f 13/13/13 6/6/6 10/10/10
f 13/13/13 14/14/14 6/6/6
f 14/14/14 15/15/15 6/6/6
f 14/14/14 16/16/16 15/15/15
f 16/16/16 17/17/17 15/15/15
f 6/6/6 12/12/12 7/7/7
f 15/15/15 17/17/17 18/18/18
f 15/15/15 18/18/18 11/11/11
f 15/15/15 11/11/11 6/6/6
