# Blender 4.3.0
# www.blender.org
o front_glass
v -8.126674 -27.178925 28.280731
v -9.257556 -22.219790 28.917374
v -11.385306 -28.071072 26.563457
v -12.717229 -22.973715 27.254555
v -14.447064 -28.959028 24.812683
v -13.647063 -17.361183 27.665024
v -10.187400 -16.778978 29.281765
v -14.116176 -11.886865 27.832561
v -10.589494 -11.514088 29.424175
v -14.313033 -6.073277 27.941463
v -10.853368 -5.901555 29.512131
v -10.987391 0.016742 29.558208
v -14.447064 0.016742 27.983353
v -14.313033 6.069067 27.941463
v -10.853368 5.901531 29.512131
v -10.589494 11.509877 29.424175
v -14.116183 11.886840 27.832561
v -10.187407 16.778959 29.281765
v -13.647063 17.361156 27.665024
v -9.257564 22.215584 28.917374
v -12.717237 22.969503 27.254555
v -11.385306 28.066860 26.563457
v -14.447072 28.954815 24.812683
v -15.975862 23.689920 25.549858
v -17.441826 29.846952 23.070286
v -19.171650 24.406145 23.807453
v -20.369553 30.701403 21.327888
v -22.233414 25.088865 22.085995
v -23.163254 31.555845 19.568737
v -25.161148 25.775772 20.393860
v -25.956959 32.410294 17.826340
v -27.954849 26.424984 18.735237
v -28.750652 33.231224 16.121632
v -30.815567 27.074196 17.080795
v -31.213467 33.985153 14.576096
v -33.542255 27.723406 15.426353
v -33.211369 34.533836 13.302803
v -36.206120 28.339109 13.776096
v -34.941208 35.011322 12.184479
v -38.865791 28.988317 12.130035
v -37.935959 21.465843 14.031593
v -41.060543 22.010344 12.121666
v -42.128605 14.898337 12.121666
v -38.798775 14.554885 14.157253
v -42.727547 7.338171 12.121666
v -8.126681 27.178909 28.280731
v -34.807171 20.950666 15.870327
v -31.946453 20.439672 17.579216
v -35.540150 14.177924 16.083946
v -39.263695 7.199950 14.228458
v -39.397720 0.016742 14.245209
v -42.857395 0.016742 12.121666
v -42.727547 -7.338199 12.121666
v -39.263687 -7.204163 14.228458
v -38.798775 -14.559105 14.157253
v -42.128597 -14.898366 12.121666
v -37.935951 -21.465874 14.031593
v -41.060539 -22.014553 12.121666
v -38.865784 -28.992535 12.130035
v -36.206112 -28.343325 13.776096
v -34.941200 -35.015541 12.184479
v -33.211361 -34.533867 13.302803
v -33.542248 -27.727621 15.426353
v -31.213467 -33.989365 14.576096
v -30.815567 -27.078409 17.080795
v -28.750645 -33.235443 16.121632
v -27.954849 -26.429197 18.735237
v -25.956951 -32.414505 17.826340
v -25.161148 -25.775797 20.393860
v -23.163246 -31.560062 19.568737
v -22.233406 -25.093079 22.085995
v -20.369545 -30.705614 21.327888
v -19.171642 -24.410358 23.807453
v -17.441818 -29.846975 23.070286
v -15.975854 -23.689941 25.549858
v -16.976894 -17.909866 25.977074
v -20.168503 -18.458557 24.234676
v -23.230263 -18.969547 22.500664
v -26.225014 -19.447033 20.850403
v -29.085732 -19.962214 19.221096
v -31.946453 -20.439695 17.579216
v -34.807163 -20.954884 15.870327
v -35.540150 -14.182142 16.083946
v -32.545406 -13.872192 17.826340
v -29.617672 -13.566435 19.464024
v -26.756950 -13.256489 21.072388
v -23.762203 -12.917228 22.705891
v -20.700432 -12.573770 24.439907
v -17.441814 -12.230315 26.173931
v -17.705681 -6.211497 26.287022
v -20.968494 -6.383227 24.552998
v -24.093090 -6.517254 22.831543
v -27.087841 -6.655476 21.202240
v -29.948551 -6.793697 19.606434
v -32.876293 -6.961236 17.968742
v -35.938053 -7.099454 16.209602
v -36.072079 0.016742 16.255669
v -33.010319 0.016742 18.023190
v -30.082592 0.016742 19.656693
v -27.221874 0.016742 21.248306
v -24.227123 0.016742 22.885998
v -21.102528 0.016742 24.607452
v -17.839714 0.016742 26.341469
v -17.705681 6.207288 26.287022
v -17.441814 12.226101 26.173931
v -16.976902 17.905655 25.977074
v -20.168503 18.454344 24.234676
v -20.968494 6.379014 24.552998
v -24.093090 6.517231 22.831543
v -27.087841 6.651258 21.202240
v -20.700432 12.569559 24.439907
v -23.762203 12.913010 22.705891
v -23.230263 18.965336 22.500664
v -26.225014 19.447006 20.850403
v -26.756950 13.256464 21.072388
v -29.948551 6.789480 19.606434
v -32.876293 6.961209 17.968742
v -29.617672 13.562221 19.464024
v -29.085732 19.957998 19.221096
v -32.545406 13.872166 17.826340
v -35.938053 7.095237 16.209602
vn -0.4109 -0.2077 0.8877
vn -0.3996 -0.1726 0.9003
vn -0.4163 -0.2227 0.8815
vn -0.4102 -0.1832 0.8934
vn -0.4272 -0.2411 0.8714
vn -0.4226 -0.0994 0.9008
vn -0.4067 -0.0936 0.9088
vn -0.4249 -0.0474 0.9040
vn -0.4078 -0.0434 0.9120
vn -0.4245 -0.0243 0.9051
vn -0.4122 -0.0249 0.9107
vn -0.4137 -0.0000 0.9104
vn -0.4251 -0.0000 0.9051
vn -0.4245 0.0243 0.9051
vn -0.4123 0.0250 0.9107
vn -0.4078 0.0434 0.9120
vn -0.4249 0.0474 0.9040
vn -0.4067 0.0937 0.9088
vn -0.4227 0.0995 0.9008
vn -0.3996 0.1727 0.9003
vn -0.4101 0.1832 0.8934
vn -0.4164 0.2227 0.8815
vn -0.4269 0.2412 0.8715
vn -0.4301 0.1934 0.8818
vn -0.4326 0.2524 0.8655
vn -0.4426 0.1967 0.8749
vn -0.4448 0.2616 0.8566
vn -0.4508 0.2013 0.8696
vn -0.4468 0.2720 0.8523
vn -0.4569 0.2100 0.8644
vn -0.4425 0.2764 0.8531
vn -0.4577 0.2131 0.8632
vn -0.4423 0.2797 0.8521
vn -0.4609 0.2137 0.8613
vn -0.4527 0.2834 0.8455
vn -0.4732 0.2164 0.8540
vn -0.4601 0.2862 0.8405
vn -0.4747 0.2199 0.8522
vn -0.4601 0.2876 0.8400
vn -0.4763 0.2139 0.8528
vn -0.4965 0.1159 0.8603
vn -0.5035 0.1146 0.8564
vn -0.5155 0.0598 0.8548
vn -0.5092 0.0604 0.8585
vn -0.5193 0.0259 0.8542
vn -0.4112 0.2075 0.8876
vn -0.4929 0.1151 0.8624
vn -0.4868 0.1131 0.8662
vn -0.5009 0.0611 0.8633
vn -0.5145 0.0267 0.8571
vn -0.5187 -0.0000 0.8549
vn -0.5231 -0.0000 0.8523
vn -0.5194 -0.0259 0.8542
vn -0.5145 -0.0267 0.8571
vn -0.5092 -0.0604 0.8585
vn -0.5156 -0.0598 0.8548
vn -0.4965 -0.1158 0.8603
vn -0.5034 -0.1146 0.8564
vn -0.4763 -0.2139 0.8529
vn -0.4747 -0.2199 0.8523
vn -0.4598 -0.2876 0.8402
vn -0.4600 -0.2862 0.8405
vn -0.4732 -0.2164 0.8540
vn -0.4529 -0.2834 0.8453
vn -0.4609 -0.2137 0.8613
vn -0.4423 -0.2797 0.8521
vn -0.4576 -0.2131 0.8632
vn -0.4425 -0.2764 0.8531
vn -0.4570 -0.2099 0.8644
vn -0.4469 -0.2719 0.8523
vn -0.4509 -0.2013 0.8696
vn -0.4447 -0.2616 0.8566
vn -0.4425 -0.1967 0.8749
vn -0.4325 -0.2525 0.8656
vn -0.4302 -0.1934 0.8818
vn -0.4494 -0.1052 0.8871
vn -0.4691 -0.1074 0.8766
vn -0.4711 -0.1045 0.8759
vn -0.4731 -0.1059 0.8746
vn -0.4791 -0.1105 0.8708
vn -0.4868 -0.1131 0.8662
vn -0.4929 -0.1151 0.8624
vn -0.5009 -0.0612 0.8634
vn -0.4904 -0.0591 0.8695
vn -0.4838 -0.0574 0.8733
vn -0.4789 -0.0569 0.8760
vn -0.4799 -0.0571 0.8755
vn -0.4759 -0.0553 0.8778
vn -0.4536 -0.0518 0.8897
vn -0.4534 -0.0263 0.8909
vn -0.4747 -0.0271 0.8797
vn -0.4799 -0.0284 0.8769
vn -0.4812 -0.0287 0.8761
vn -0.4864 -0.0290 0.8733
vn -0.4920 -0.0288 0.8701
vn -0.5047 -0.0285 0.8628
vn -0.5084 -0.0000 0.8611
vn -0.4937 -0.0000 0.8696
vn -0.4868 -0.0000 0.8735
vn -0.4827 -0.0000 0.8758
vn -0.4811 -0.0000 0.8767
vn -0.4759 0.0001 0.8795
vn -0.4531 0.0001 0.8915
vn -0.4534 0.0263 0.8909
vn -0.4537 0.0518 0.8897
vn -0.4494 0.1051 0.8871
vn -0.4691 0.1073 0.8766
vn -0.4747 0.0271 0.8797
vn -0.4799 0.0285 0.8769
vn -0.4812 0.0287 0.8761
vn -0.4759 0.0553 0.8778
vn -0.4799 0.0571 0.8755
vn -0.4710 0.1045 0.8759
vn -0.4731 0.1059 0.8746
vn -0.4789 0.0569 0.8760
vn -0.4864 0.0290 0.8733
vn -0.4920 0.0288 0.8701
vn -0.4838 0.0574 0.8733
vn -0.4791 0.1105 0.8708
vn -0.4904 0.0591 0.8695
vn -0.5047 0.0285 0.8628
vt 0.000073 0.886490
vt 0.010203 0.814803
vt 0.052132 0.898945
vt 0.064480 0.824991
vt 0.101904 0.911690
vt 0.073358 0.745065
vt 0.019416 0.737190
vt 0.078002 0.667703
vt 0.023373 0.662675
vt 0.079655 0.585660
vt 0.026025 0.583347
vt 0.027378 0.499734
vt 0.081047 0.499735
vt 0.079655 0.414341
vt 0.026025 0.416595
vt 0.023373 0.337326
vt 0.078002 0.332239
vt 0.019416 0.262751
vt 0.073358 0.254877
vt 0.010203 0.185197
vt 0.064480 0.175009
vt 0.052131 0.101055
vt 0.101903 0.088310
vt 0.116357 0.165007
vt 0.150790 0.075490
vt 0.167663 0.154942
vt 0.198849 0.063140
vt 0.217157 0.145263
vt 0.245355 0.050563
vt 0.264806 0.135457
vt 0.291767 0.038089
vt 0.310582 0.126099
vt 0.337929 0.026239
vt 0.357182 0.116873
vt 0.378928 0.015261
vt 0.402113 0.107478
vt 0.412321 0.007163
vt 0.446277 0.098474
vt 0.441339 0.000073
vt 0.490398 0.089017
vt 0.465991 0.196625
vt 0.517655 0.188690
vt 0.530972 0.289402
vt 0.475876 0.294434
vt 0.538464 0.396286
vt 0.000074 0.113452
vt 0.414808 0.204041
vt 0.367835 0.211421
vt 0.422475 0.299877
vt 0.481202 0.398326
vt 0.482777 0.499734
vt 0.540101 0.499734
vt 0.538464 0.603655
vt 0.481202 0.601674
vt 0.475876 0.705566
vt 0.530972 0.710539
vt 0.465992 0.803317
vt 0.517656 0.811309
vt 0.490398 0.910983
vt 0.446278 0.901526
vt 0.441340 0.999927
vt 0.412321 0.992780
vt 0.402113 0.892522
vt 0.378929 0.984739
vt 0.357183 0.883127
vt 0.337930 0.973761
vt 0.310583 0.873901
vt 0.291767 0.961911
vt 0.264807 0.864485
vt 0.245355 0.949437
vt 0.217158 0.854737
vt 0.198849 0.936860
vt 0.167663 0.845058
vt 0.150790 0.924453
vt 0.116357 0.834936
vt 0.125989 0.752632
vt 0.177209 0.760359
vt 0.226775 0.767632
vt 0.274962 0.774372
vt 0.321353 0.781704
vt 0.367835 0.788520
vt 0.414808 0.795959
vt 0.422476 0.700123
vt 0.373619 0.695660
vt 0.326329 0.691312
vt 0.280074 0.686904
vt 0.232000 0.682120
vt 0.182421 0.677233
vt 0.130405 0.672427
vt 0.132891 0.587539
vt 0.184974 0.589943
vt 0.235254 0.591840
vt 0.283306 0.593790
vt 0.329481 0.595755
vt 0.376777 0.598137
vt 0.426579 0.600126
vt 0.427930 0.499734
vt 0.378068 0.499734
vt 0.330802 0.499734
vt 0.284654 0.499735
vt 0.236546 0.499735
vt 0.186265 0.499735
vt 0.134187 0.499735
vt 0.132891 0.412461
vt 0.130404 0.327573
vt 0.125988 0.247368
vt 0.177209 0.239642
vt 0.184974 0.410057
vt 0.235254 0.408101
vt 0.283306 0.406211
vt 0.182421 0.322767
vt 0.231999 0.317881
vt 0.226774 0.232368
vt 0.274962 0.225570
vt 0.280074 0.313038
vt 0.329481 0.404245
vt 0.376777 0.401804
vt 0.326329 0.308688
vt 0.321352 0.218296
vt 0.373619 0.304281
vt 0.426579 0.399875
s 1
f 1/1/1 2/2/2 3/3/3
f 2/2/2 4/4/4 3/3/3
f 3/3/3 4/4/4 5/5/5
f 2/2/2 6/6/6 4/4/4
f 2/2/2 7/7/7 6/6/6
f 7/7/7 8/8/8 6/6/6
f 7/7/7 9/9/9 8/8/8
f 9/9/9 10/10/10 8/8/8
f 9/9/9 11/11/11 10/10/10
f 11/11/11 12/12/12 10/10/10
f 12/12/12 13/13/13 10/10/10
f 12/12/12 14/14/14 13/13/13
f 15/15/15 14/14/14 12/12/12
f 16/16/16 14/14/14 15/15/15
f 16/16/16 17/17/17 14/14/14
f 18/18/18 17/17/17 16/16/16
f 18/18/18 19/19/19 17/17/17
f 20/20/20 19/19/19 18/18/18
f 20/20/20 21/21/21 19/19/19
f 20/20/20 22/22/22 21/21/21
f 22/22/22 23/23/23 21/21/21
f 21/21/21 23/23/23 24/24/24
f 23/23/23 25/25/25 24/24/24
f 24/24/24 25/25/25 26/26/26
f 25/25/25 27/27/27 26/26/26
f 26/26/26 27/27/27 28/28/28
f 27/27/27 29/29/29 28/28/28
f 28/28/28 29/29/29 30/30/30
f 29/29/29 31/31/31 30/30/30
f 30/30/30 31/31/31 32/32/32
f 31/31/31 33/33/33 32/32/32
f 32/32/32 33/33/33 34/34/34
f 33/33/33 35/35/35 34/34/34
f 34/34/34 35/35/35 36/36/36
f 35/35/35 37/37/37 36/36/36
f 37/37/37 38/38/38 36/36/36
f 37/37/37 39/39/39 38/38/38
f 39/39/39 40/40/40 38/38/38
f 38/38/38 40/40/40 41/41/41
f 41/41/41 40/40/40 42/42/42
f 41/41/41 42/42/42 43/43/43
f 41/41/41 43/43/43 44/44/44
f 44/44/44 43/43/43 45/45/45
f 46/46/46 22/22/22 20/20/20
f 47/47/47 41/41/41 44/44/44
f 47/47/47 38/38/38 41/41/41
f 36/36/36 38/38/38 47/47/47
f 34/34/34 36/36/36 47/47/47
f 34/34/34 47/47/47 48/48/48
f 32/32/32 34/34/34 48/48/48
f 48/48/48 47/47/47 49/49/49
f 47/47/47 44/44/44 49/49/49
f 49/49/49 44/44/44 50/50/50
f 44/44/44 45/45/45 50/50/50
f 50/50/50 45/45/45 51/51/51
f 51/51/51 45/45/45 52/52/52
f 51/51/51 52/52/52 53/53/53
f 54/54/54 51/51/51 53/53/53
f 55/55/55 54/54/54 53/53/53
f 55/55/55 53/53/53 56/56/56
f 57/57/57 55/55/55 56/56/56
f 57/57/57 56/56/56 58/58/58
f 57/57/57 58/58/58 59/59/59
f 60/60/60 57/57/57 59/59/59
f 61/61/61 60/60/60 59/59/59
f 62/62/62 60/60/60 61/61/61
f 62/62/62 63/63/63 60/60/60
f 64/64/64 63/63/63 62/62/62
f 65/65/65 63/63/63 64/64/64
f 66/66/66 65/65/65 64/64/64
f 67/67/67 65/65/65 66/66/66
f 68/68/68 67/67/67 66/66/66
f 69/69/69 67/67/67 68/68/68
f 70/70/70 69/69/69 68/68/68
f 71/71/71 69/69/69 70/70/70
f 72/72/72 71/71/71 70/70/70
f 73/73/73 71/71/71 72/72/72
f 74/74/74 73/73/73 72/72/72
f 75/75/75 73/73/73 74/74/74
f 5/5/5 75/75/75 74/74/74
f 4/4/4 75/75/75 5/5/5
f 4/4/4 76/76/76 75/75/75
f 4/4/4 6/6/6 76/76/76
f 75/75/75 76/76/76 77/77/77
f 75/75/75 77/77/77 73/73/73
f 73/73/73 77/77/77 78/78/78
f 73/73/73 78/78/78 71/71/71
f 71/71/71 78/78/78 79/79/79
f 71/71/71 79/79/79 69/69/69
f 69/69/69 79/79/79 80/80/80
f 69/69/69 80/80/80 67/67/67
f 67/67/67 80/80/80 81/81/81
f 67/67/67 81/81/81 65/65/65
f 65/65/65 81/81/81 82/82/82
f 65/65/65 82/82/82 63/63/63
f 63/63/63 82/82/82 60/60/60
f 82/82/82 57/57/57 60/60/60
f 82/82/82 55/55/55 57/57/57
f 82/82/82 83/83/83 55/55/55
f 83/83/83 54/54/54 55/55/55
f 81/81/81 83/83/83 82/82/82
f 81/81/81 84/84/84 83/83/83
f 80/80/80 84/84/84 81/81/81
f 80/80/80 85/85/85 84/84/84
f 79/79/79 85/85/85 80/80/80
f 79/79/79 86/86/86 85/85/85
f 78/78/78 86/86/86 79/79/79
f 78/78/78 87/87/87 86/86/86
f 77/77/77 87/87/87 78/78/78
f 77/77/77 88/88/88 87/87/87
f 76/76/76 88/88/88 77/77/77
f 76/76/76 89/89/89 88/88/88
f 6/6/6 89/89/89 76/76/76
f 6/6/6 8/8/8 89/89/89
f 8/8/8 90/90/90 89/89/89
f 8/8/8 10/10/10 90/90/90
f 89/89/89 90/90/90 91/91/91
f 89/89/89 91/91/91 88/88/88
f 88/88/88 91/91/91 92/92/92
f 88/88/88 92/92/92 87/87/87
f 87/87/87 92/92/92 93/93/93
f 87/87/87 93/93/93 86/86/86
f 86/86/86 93/93/93 94/94/94
f 86/86/86 94/94/94 85/85/85
f 85/85/85 94/94/94 95/95/95
f 85/85/85 95/95/95 84/84/84
f 84/84/84 95/95/95 96/96/96
f 84/84/84 96/96/96 83/83/83
f 83/83/83 96/96/96 54/54/54
f 96/96/96 51/51/51 54/54/54
f 96/96/96 97/97/97 51/51/51
f 95/95/95 97/97/97 96/96/96
f 95/95/95 98/98/98 97/97/97
f 94/94/94 98/98/98 95/95/95
f 94/94/94 99/99/99 98/98/98
f 93/93/93 99/99/99 94/94/94
f 93/93/93 100/100/100 99/99/99
f 92/92/92 100/100/100 93/93/93
f 92/92/92 101/101/101 100/100/100
f 91/91/91 101/101/101 92/92/92
f 91/91/91 102/102/102 101/101/101
f 90/90/90 102/102/102 91/91/91
f 90/90/90 103/103/103 102/102/102
f 10/10/10 103/103/103 90/90/90
f 10/10/10 13/13/13 103/103/103
f 14/14/14 103/103/103 13/13/13
f 14/14/14 104/104/104 103/103/103
f 17/17/17 104/104/104 14/14/14
f 17/17/17 105/105/105 104/104/104
f 19/19/19 105/105/105 17/17/17
f 19/19/19 106/106/106 105/105/105
f 21/21/21 106/106/106 19/19/19
f 21/21/21 24/24/24 106/106/106
f 24/24/24 107/107/107 106/106/106
f 24/24/24 26/26/26 107/107/107
f 104/104/104 102/102/102 103/103/103
f 104/104/104 108/108/108 102/102/102
f 108/108/108 101/101/101 102/102/102
f 108/108/108 109/109/109 101/101/101
f 109/109/109 100/100/100 101/101/101
f 109/109/109 110/110/110 100/100/100
f 110/110/110 99/99/99 100/100/100
f 105/105/105 108/108/108 104/104/104
f 105/105/105 111/111/111 108/108/108
f 106/106/106 111/111/111 105/105/105
f 106/106/106 107/107/107 111/111/111
f 107/107/107 112/112/112 111/111/111
f 107/107/107 113/113/113 112/112/112
f 26/26/26 113/113/113 107/107/107
f 26/26/26 28/28/28 113/113/113
f 28/28/28 114/114/114 113/113/113
f 28/28/28 30/30/30 114/114/114
f 111/111/111 109/109/109 108/108/108
f 111/111/111 112/112/112 109/109/109
f 112/112/112 110/110/110 109/109/109
f 112/112/112 115/115/115 110/110/110
f 115/115/115 116/116/116 110/110/110
f 110/110/110 116/116/116 99/99/99
f 116/116/116 98/98/98 99/99/99
f 116/116/116 117/117/117 98/98/98
f 117/117/117 97/97/97 98/98/98
f 113/113/113 115/115/115 112/112/112
f 113/113/113 114/114/114 115/115/115
f 114/114/114 118/118/118 115/115/115
f 114/114/114 119/119/119 118/118/118
f 119/119/119 120/120/120 118/118/118
f 119/119/119 48/48/48 120/120/120
f 48/48/48 49/49/49 120/120/120
f 115/115/115 118/118/118 116/116/116
f 118/118/118 117/117/117 116/116/116
f 118/118/118 120/120/120 117/117/117
f 120/120/120 121/121/121 117/117/117
f 120/120/120 49/49/49 121/121/121
f 49/49/49 50/50/50 121/121/121
f 121/121/121 50/50/50 51/51/51
f 121/121/121 51/51/51 97/97/97
f 117/117/117 121/121/121 97/97/97
f 30/30/30 119/119/119 114/114/114
f 30/30/30 32/32/32 119/119/119
f 32/32/32 48/48/48 119/119/119
