# Blender 4.3.0
# www.blender.org
o rear_glass
v 70.989143 -26.839657 26.039871
v 63.935768 -24.339146 29.202168
v 63.734718 -25.813486 28.846142
v 71.320023 -25.231291 26.333065
v 64.400696 -21.227119 29.667080
v 77.510574 -27.727606 23.409519
v 77.908485 -25.981018 23.681774
v 83.897972 -28.205095 20.636761
v 84.295868 -26.462690 20.929943
v 89.619392 -28.071064 18.261902
v 90.084335 -26.462690 18.299591
v 85.095879 -22.734970 21.239895
v 91.018349 -23.074230 18.421059
v 78.708466 -22.253298 23.979141
v 72.053001 -21.775808 26.659767
v 64.798599 -16.506727 29.993782
v 72.718964 -17.021906 26.890125
v 64.932640 -11.614604 30.190639
v 79.504288 -17.465883 24.155060
v 85.891670 -17.876350 21.436752
v 92.015205 -18.253313 18.617916
v 86.423599 -12.230308 21.587536
v 92.681168 -12.335016 18.714252
v 80.103218 -12.163291 24.289093
v 73.116875 -11.924550 27.070232
v 65.066658 -6.416727 30.286972
v 73.384933 -6.450231 27.174946
v 65.066658 0.016750 30.312103
v 80.505318 -6.450231 24.377048
v 86.825699 -6.416723 21.675491
v 93.213112 -6.383219 18.743568
v 86.959732 0.016754 21.709000
v 93.347145 0.016754 18.743568
v 93.213112 6.379025 18.743568
v 86.825699 6.412529 21.675491
v 92.681168 12.330822 18.714252
v 80.635147 0.016750 24.423126
v 73.518967 0.016750 27.221020
v 73.384933 6.446033 27.174946
v 65.066658 6.412529 30.286972
v 80.505318 6.446037 24.377048
v 86.423599 12.226112 21.587536
v 92.015205 18.249121 18.617916
v 85.891670 17.872160 21.436752
v 91.018349 23.074228 18.421059
v 80.103218 12.159097 24.289093
v 73.116875 11.920352 27.070232
v 64.932625 11.610405 30.190639
v 72.718964 17.017710 26.890125
v 64.798599 16.502529 29.993782
v 72.053001 21.771614 26.659767
v 64.400696 21.222923 29.667080
v 71.320023 25.227091 26.333065
v 63.935768 24.339136 29.202168
v 70.989143 26.835463 26.039871
v 63.734718 25.809288 28.846142
v 77.510574 27.723413 23.409519
v 77.908485 25.981014 23.681774
v 78.708466 22.253284 23.979141
v 79.504288 17.461685 24.155060
v 85.095879 22.730770 21.239895
v 90.084335 26.458502 18.299591
v 84.295868 26.458500 20.929943
v 89.619392 28.066870 18.261902
v 83.897972 28.205088 20.636761
v 89.887459 -26.462690 17.926815
v 89.418343 -28.071064 17.960331
v 90.817314 -23.074230 18.119488
v 91.814156 -18.253313 18.316345
v 92.480133 -12.335016 18.412678
v 93.012062 -6.383219 18.429428
v 93.146080 0.016754 18.441998
v 93.012062 6.379025 18.429428
v 92.480133 12.330822 18.412678
v 91.814156 18.249121 18.316345
v 90.817314 23.074228 18.119488
v 89.887459 26.458502 17.926815
v 89.418343 28.066870 17.960331
vn 0.3309 -0.2365 0.9135
vn 0.3270 -0.2227 0.9184
vn 0.3155 -0.2632 0.9117
vn 0.3412 -0.1994 0.9186
vn 0.3494 -0.1380 0.9268
vn 0.3571 -0.2240 0.9068
vn 0.3638 -0.1895 0.9120
vn 0.3734 -0.2353 0.8973
vn 0.3847 -0.1945 0.9023
vn 0.4048 -0.1552 0.9012
vn 0.4127 -0.1468 0.8989
vn 0.3998 -0.1300 0.9073
vn 0.4161 -0.1298 0.9000
vn 0.3735 -0.1249 0.9192
vn 0.3576 -0.1278 0.9251
vn 0.3601 -0.0706 0.9302
vn 0.3626 -0.0772 0.9287
vn 0.3571 -0.0390 0.9332
vn 0.3770 -0.0811 0.9226
vn 0.4017 -0.0850 0.9118
vn 0.4123 -0.0905 0.9066
vn 0.4040 -0.0519 0.9133
vn 0.4162 -0.0514 0.9078
vn 0.3790 -0.0525 0.9239
vn 0.3608 -0.0479 0.9314
vn 0.3519 -0.0166 0.9359
vn 0.3574 -0.0242 0.9336
vn 0.3476 -0.0000 0.9376
vn 0.3795 -0.0275 0.9248
vn 0.4053 -0.0276 0.9138
vn 0.4182 -0.0258 0.9080
vn 0.4069 -0.0000 0.9135
vn 0.4211 -0.0000 0.9070
vn 0.4182 0.0259 0.9080
vn 0.4053 0.0276 0.9138
vn 0.4162 0.0514 0.9078
vn 0.3800 -0.0000 0.9250
vn 0.3548 -0.0000 0.9350
vn 0.3574 0.0242 0.9336
vn 0.3519 0.0166 0.9359
vn 0.3795 0.0276 0.9248
vn 0.4040 0.0519 0.9133
vn 0.4123 0.0904 0.9066
vn 0.4017 0.0850 0.9118
vn 0.4160 0.1298 0.9000
vn 0.3790 0.0525 0.9239
vn 0.3608 0.0479 0.9314
vn 0.3571 0.0390 0.9332
vn 0.3626 0.0772 0.9287
vn 0.3601 0.0706 0.9302
vn 0.3576 0.1278 0.9251
vn 0.3494 0.1379 0.9268
vn 0.3412 0.1994 0.9186
vn 0.3270 0.2229 0.9184
vn 0.3310 0.2366 0.9135
vn 0.3153 0.2639 0.9116
vn 0.3570 0.2244 0.9068
vn 0.3637 0.1897 0.9120
vn 0.3735 0.1249 0.9192
vn 0.3770 0.0811 0.9226
vn 0.3998 0.1300 0.9073
vn 0.4127 0.1469 0.8989
vn 0.3849 0.1943 0.9023
vn 0.4048 0.1551 0.9012
vn 0.3736 0.2349 0.8974
vn 0.8580 -0.2264 -0.4610
vn 0.8145 -0.2453 -0.5258
vn 0.8064 -0.2464 -0.5376
vn 0.8604 -0.2230 -0.4581
vn 0.8206 -0.1798 -0.5425
vn 0.8194 -0.1735 -0.5463
vn 0.8262 -0.1183 -0.5508
vn 0.8266 -0.1138 -0.5511
vn 0.8295 -0.0787 -0.5530
vn 0.8297 -0.0782 -0.5527
vn 0.8412 -0.0451 -0.5388
vn 0.8413 -0.0440 -0.5388
vn 0.8324 0.0001 -0.5542
vn 0.8320 0.0001 -0.5547
vn 0.8413 0.0440 -0.5388
vn 0.8412 0.0451 -0.5388
vn 0.8297 0.0782 -0.5527
vn 0.8295 0.0787 -0.5530
vn 0.8267 0.1137 -0.5511
vn 0.8262 0.1182 -0.5508
vn 0.8194 0.1735 -0.5463
vn 0.8206 0.1799 -0.5425
vn 0.8604 0.2231 -0.4581
vn 0.8580 0.2265 -0.4610
vn 0.8145 0.2453 -0.5258
vn 0.8064 0.2464 -0.5376
vt 0.139901 0.017840
vt 0.000595 0.060257
vt 0.000075 0.032838
vt 0.142860 0.047558
vt 0.004145 0.117196
vt 0.266160 0.005134
vt 0.270075 0.037265
vt 0.390754 0.000074
vt 0.394099 0.032142
vt 0.500816 0.007446
vt 0.506636 0.036503
vt 0.402729 0.099201
vt 0.517270 0.097224
vt 0.279566 0.104680
vt 0.151542 0.110395
vt 0.006955 0.202420
vt 0.159413 0.195851
vt 0.006447 0.290492
vt 0.289609 0.190257
vt 0.412028 0.185299
vt 0.528672 0.181476
vt 0.418263 0.284752
vt 0.539227 0.283843
vt 0.297067 0.284513
vt 0.163428 0.287059
vt 0.006942 0.384163
vt 0.166198 0.384838
vt 0.006156 0.500303
vt 0.302129 0.385754
vt 0.423359 0.386952
vt 0.546252 0.388296
vt 0.425111 0.500290
vt 0.549085 0.500286
vt 0.546264 0.611622
vt 0.423364 0.612968
vt 0.539238 0.716080
vt 0.303623 0.500294
vt 0.167721 0.500298
vt 0.166199 0.615086
vt 0.006941 0.615761
vt 0.302131 0.614168
vt 0.418269 0.715171
vt 0.528684 0.818454
vt 0.412034 0.814626
vt 0.517270 0.902770
vt 0.297070 0.715411
vt 0.163429 0.712866
vt 0.006446 0.709434
vt 0.159415 0.804076
vt 0.006955 0.797507
vt 0.151545 0.889533
vt 0.004144 0.882732
vt 0.142862 0.952371
vt 0.000597 0.939746
vt 0.139904 0.982090
vt 0.000075 0.967093
vt 0.266164 0.994795
vt 0.270081 0.962736
vt 0.279572 0.895321
vt 0.289613 0.809668
vt 0.402733 0.900727
vt 0.506646 0.963422
vt 0.394105 0.967785
vt 0.500824 0.992480
vt 0.390763 0.999925
vt 0.513655 0.034030
vt 0.506805 0.005111
vt 0.523285 0.095262
vt 0.534821 0.180038
vt 0.545550 0.282889
vt 0.552796 0.387782
vt 0.555550 0.500287
vt 0.552808 0.612137
vt 0.545561 0.717034
vt 0.534833 0.819892
vt 0.523284 0.904733
vt 0.513666 0.965896
vt 0.506813 0.994815
s 1
f 1/1/1 2/2/2 3/3/3
f 4/4/4 2/2/2 1/1/1
f 4/4/4 5/5/5 2/2/2
f 6/6/6 4/4/4 1/1/1
f 7/7/7 4/4/4 6/6/6
f 8/8/8 7/7/7 6/6/6
f 9/9/9 7/7/7 8/8/8
f 10/10/10 9/9/9 8/8/8
f 11/11/11 9/9/9 10/10/10
f 11/11/11 12/12/12 9/9/9
f 13/13/13 12/12/12 11/11/11
f 12/12/12 14/14/14 9/9/9
f 9/9/9 14/14/14 7/7/7
f 14/14/14 15/15/15 7/7/7
f 7/7/7 15/15/15 4/4/4
f 15/15/15 5/5/5 4/4/4
f 15/15/15 16/16/16 5/5/5
f 17/17/17 16/16/16 15/15/15
f 17/17/17 18/18/18 16/16/16
f 14/14/14 17/17/17 15/15/15
f 19/19/19 17/17/17 14/14/14
f 12/12/12 19/19/19 14/14/14
f 20/20/20 19/19/19 12/12/12
f 13/13/13 20/20/20 12/12/12
f 21/21/21 20/20/20 13/13/13
f 21/21/21 22/22/22 20/20/20
f 23/23/23 22/22/22 21/21/21
f 22/22/22 24/24/24 20/20/20
f 20/20/20 24/24/24 19/19/19
f 24/24/24 25/25/25 19/19/19
f 19/19/19 25/25/25 17/17/17
f 25/25/25 18/18/18 17/17/17
f 25/25/25 26/26/26 18/18/18
f 27/27/27 26/26/26 25/25/25
f 27/27/27 28/28/28 26/26/26
f 24/24/24 27/27/27 25/25/25
f 29/29/29 27/27/27 24/24/24
f 22/22/22 29/29/29 24/24/24
f 30/30/30 29/29/29 22/22/22
f 23/23/23 30/30/30 22/22/22
f 31/31/31 30/30/30 23/23/23
f 31/31/31 32/32/32 30/30/30
f 33/33/33 32/32/32 31/31/31
f 33/33/33 34/34/34 32/32/32
f 34/34/34 35/35/35 32/32/32
f 34/34/34 36/36/36 35/35/35
f 32/32/32 35/35/35 37/37/37
f 32/32/32 37/37/37 30/30/30
f 30/30/30 37/37/37 29/29/29
f 37/37/37 38/38/38 29/29/29
f 29/29/29 38/38/38 27/27/27
f 38/38/38 28/28/28 27/27/27
f 38/38/38 39/39/39 28/28/28
f 39/39/39 40/40/40 28/28/28
f 41/41/41 39/39/39 38/38/38
f 37/37/37 41/41/41 38/38/38
f 35/35/35 41/41/41 37/37/37
f 35/35/35 42/42/42 41/41/41
f 36/36/36 42/42/42 35/35/35
f 36/36/36 43/43/43 42/42/42
f 43/43/43 44/44/44 42/42/42
f 43/43/43 45/45/45 44/44/44
f 42/42/42 44/44/44 46/46/46
f 42/42/42 46/46/46 41/41/41
f 41/41/41 46/46/46 39/39/39
f 46/46/46 47/47/47 39/39/39
f 39/39/39 47/47/47 40/40/40
f 47/47/47 48/48/48 40/40/40
f 47/47/47 49/49/49 48/48/48
f 49/49/49 50/50/50 48/48/48
f 49/49/49 51/51/51 50/50/50
f 51/51/51 52/52/52 50/50/50
f 51/51/51 53/53/53 52/52/52
f 53/53/53 54/54/54 52/52/52
f 53/53/53 55/55/55 54/54/54
f 55/55/55 56/56/56 54/54/54
f 57/57/57 55/55/55 53/53/53
f 58/58/58 57/57/57 53/53/53
f 58/58/58 53/53/53 51/51/51
f 59/59/59 58/58/58 51/51/51
f 59/59/59 51/51/51 49/49/49
f 60/60/60 59/59/59 49/49/49
f 60/60/60 49/49/49 47/47/47
f 46/46/46 60/60/60 47/47/47
f 44/44/44 60/60/60 46/46/46
f 44/44/44 61/61/61 60/60/60
f 45/45/45 61/61/61 44/44/44
f 45/45/45 62/62/62 61/61/61
f 62/62/62 63/63/63 61/61/61
f 62/62/62 64/64/64 63/63/63
f 64/64/64 65/65/65 63/63/63
f 63/63/63 65/65/65 58/58/58
f 65/65/65 57/57/57 58/58/58
f 61/61/61 59/59/59 60/60/60
f 61/61/61 63/63/63 59/59/59
f 63/63/63 58/58/58 59/59/59
f 66/66/66 10/10/67 67/67/68
f 11/11/69 10/10/67 66/66/66
f 68/68/70 11/11/69 66/66/66
f 13/13/71 11/11/69 68/68/70
f 69/69/72 13/13/71 68/68/70
f 21/21/73 13/13/71 69/69/72
f 70/70/74 21/21/73 69/69/72
f 23/23/75 21/21/73 70/70/74
f 71/71/76 23/23/75 70/70/74
f 31/31/77 23/23/75 71/71/76
f 72/72/78 31/31/77 71/71/76
f 33/33/79 31/31/77 72/72/78
f 34/34/80 33/33/79 72/72/78
f 34/34/80 72/72/78 73/73/81
f 36/36/82 34/34/80 73/73/81
f 36/36/82 73/73/81 74/74/83
f 43/43/84 36/36/82 74/74/83
f 43/43/84 74/74/83 75/75/85
f 45/45/86 43/43/84 75/75/85
f 45/45/86 75/75/85 76/76/87
f 62/62/88 45/45/86 76/76/87
f 62/62/88 76/76/87 77/77/89
f 64/64/90 62/62/88 77/77/89
f 64/64/90 77/77/89 78/78/91
