# Blender 4.3.0
# www.blender.org
o taillight_r_emissive
v 107.051773 34.004051 10.923702
v 107.139740 34.100388 10.597012
v 107.206741 33.928665 10.877636
v 107.303078 34.020813 10.555126
v 107.671669 34.657455 8.678696
v 107.839203 34.540176 8.678696
v 108.203598 33.555885 10.333138
v 108.760666 33.916100 8.674507
v 109.259079 33.405106 8.687077
v 108.890518 32.898308 10.073452
v 109.778450 32.868980 8.695446
v 109.581619 32.232338 9.847275
v 110.444443 31.805113 8.708015
v 110.205681 31.252234 9.696495
v 111.596260 29.216646 8.737331
v 111.273743 29.199896 9.642040
v 111.998337 27.248072 9.608532
v 111.948082 27.252264 9.759312
v 111.981598 27.210375 9.721622
v 112.019295 27.197805 9.587593
v 112.278961 27.147551 8.808537
v 112.283173 27.201994 8.745712
v 111.223480 29.195700 9.801201
v 110.159607 31.155901 9.868217
v 109.552284 32.123444 10.044136
v 108.831863 32.810341 10.312191
v 108.111450 33.488876 10.617950
v 107.491562 34.711906 8.674507
v 106.947060 34.142281 10.613762
v 106.854919 34.045937 10.948841
v 105.313553 34.506668 10.764549
v 105.338692 34.351700 11.128941
v 104.023514 34.753792 10.886013
v 104.077965 34.603004 11.279724
v 102.762787 34.938087 11.003292
v 102.942909 35.700386 8.582359
v 102.578484 35.725510 8.573986
v 102.172218 35.021851 11.053551
v 102.436089 35.729706 8.620064
v 105.162781 35.428139 8.636810
v 103.734512 35.637558 8.599113
v 102.729286 34.808235 11.417957
v 102.101006 34.904579 11.480774
v 101.677986 35.067924 11.099625
v 101.548157 34.959023 11.526852
v 101.108345 35.122375 11.154076
v 102.276917 35.738075 8.674511
v 100.953377 35.763206 9.365601
v 99.906258 35.227089 11.342560
v 99.148163 35.604050 10.391777
v 98.758621 35.235466 11.518471
v 97.728264 35.361115 11.329994
v 97.669632 35.231277 11.681820
v 97.548157 35.281532 11.598057
v 97.548157 35.239647 11.690201
v 97.548157 35.231277 11.706951
v 97.657066 35.206146 11.740467
v 98.691612 35.168449 11.711140
v 99.721970 35.134941 11.681820
v 100.907310 35.017670 11.581299
vn 0.3394 0.8743 0.3469
vn 0.3596 0.8636 0.3535
vn 0.4898 0.7900 0.3688
vn 0.4884 0.7921 0.3661
vn 0.4120 0.8392 0.3549
vn 0.5255 0.7723 0.3568
vn 0.6100 0.7006 0.3702
vn 0.6017 0.7143 0.3572
vn 0.6657 0.6356 0.3909
vn 0.7007 0.5896 0.4018
vn 0.7130 0.5668 0.4128
vn 0.7478 0.5193 0.4137
vn 0.8018 0.4298 0.4153
vn 0.8071 0.4107 0.4242
vn 0.8717 0.3662 0.3257
vn 0.8717 0.3843 0.3042
vn 0.9099 0.3103 0.2752
vn 0.8869 0.3630 0.2855
vn 0.8705 0.4136 0.2667
vn 0.9232 0.2718 0.2716
vn 0.9202 0.2632 0.2897
vn 0.9123 0.2936 0.2855
vn 0.8729 0.3952 0.2861
vn 0.7983 0.4110 0.4403
vn 0.7604 0.5109 0.4010
vn 0.7067 0.5895 0.3912
vn 0.5855 0.7249 0.3630
vn 0.2670 0.9025 0.3380
vn 0.2376 0.9107 0.3379
vn 0.2346 0.9140 0.3310
vn 0.2197 0.9025 0.3704
vn 0.2185 0.9052 0.3646
vn 0.1779 0.9244 0.3374
vn 0.1966 0.9253 0.3244
vn 0.1619 0.9385 0.3050
vn 0.0781 0.9436 0.3219
vn 0.0921 0.9503 0.2974
vn 0.1397 0.9468 0.2899
vn 0.1306 0.9474 0.2921
vn 0.1985 0.9137 0.3547
vn 0.0935 0.9326 0.3486
vn 0.1690 0.9380 0.3027
vn 0.1408 0.9487 0.2832
vn 0.1174 0.9513 0.2850
vn 0.1159 0.9529 0.2804
vn 0.1276 0.9455 0.2995
vn 0.1567 0.9403 0.3020
vn 0.1565 0.9356 0.3165
vn 0.0961 0.9449 0.3130
vn 0.0720 0.9457 0.3170
vn 0.0496 0.9415 0.3333
vn 0.0637 0.9356 0.3472
vn 0.0743 0.9190 0.3871
vn 0.1175 0.9175 0.3801
vn 0.0915 0.8986 0.4290
vn 0.0899 0.8961 0.4346
vn 0.0648 0.9121 0.4047
vn 0.0448 0.9382 0.3432
vn 0.0734 0.9504 0.3023
vn 0.1217 0.9483 0.2932
vt 0.061055 0.514288
vt 0.062658 0.523721
vt 0.079620 0.517667
vt 0.080976 0.527578
vt 0.188548 0.538456
vt 0.187104 0.549331
vt 0.087483 0.582854
vt 0.179801 0.608580
vt 0.171643 0.645998
vt 0.090670 0.635645
vt 0.163374 0.685175
vt 0.092043 0.688558
vt 0.143840 0.749587
vt 0.081748 0.750613
vt 0.091361 0.892244
vt 0.045189 0.869362
vt 0.007553 0.974680
vt 0.000044 0.970623
vt 0.001129 0.973968
vt 0.007573 0.977813
vt 0.045776 0.999956
vt 0.050062 0.998710
vt 0.037071 0.865556
vt 0.070896 0.750657
vt 0.079888 0.689281
vt 0.076755 0.634055
vt 0.071551 0.578737
vt 0.188956 0.528368
vt 0.078696 0.507091
vt 0.059687 0.503497
vt 0.070527 0.417307
vt 0.049498 0.420592
vt 0.063132 0.346879
vt 0.040824 0.351684
vt 0.054870 0.278678
vt 0.191410 0.277750
vt 0.190725 0.258158
vt 0.051173 0.246764
vt 0.187848 0.250657
vt 0.193645 0.397755
vt 0.192955 0.320322
vt 0.031482 0.278694
vt 0.027184 0.244698
vt 0.047510 0.220263
vt 0.023411 0.215032
vt 0.043231 0.189713
vt 0.184537 0.242248
vt 0.144152 0.173049
vt 0.030237 0.125468
vt 0.081619 0.080441
vt 0.016542 0.064681
vt 0.023831 0.008536
vt 0.003514 0.007021
vt 0.008134 0.000045
vt 0.002724 0.000517
vt 0.001724 0.000607
vt 0.000044 0.006639
vt 0.005343 0.061978
vt 0.010665 0.117062
vt 0.018902 0.180677
s 1
f 1/1/1 3/2/3 2/3/2
f 3/2/3 4/4/4 2/3/2
f 2/3/2 4/4/4 5/5/5
f 4/4/4 6/6/6 5/5/5
f 4/4/4 7/7/7 6/6/6
f 7/7/7 8/8/8 6/6/6
f 9/9/9 8/8/8 7/7/7
f 10/10/10 9/9/9 7/7/7
f 11/11/11 9/9/9 10/10/10
f 12/12/12 11/11/11 10/10/10
f 13/13/13 11/11/11 12/12/12
f 14/14/14 13/13/13 12/12/12
f 15/15/15 13/13/13 14/14/14
f 16/16/16 15/15/15 14/14/14
f 17/17/17 15/15/15 16/16/16
f 17/17/17 16/16/16 18/18/18
f 19/19/19 17/17/17 18/18/18
f 20/20/20 17/17/17 19/19/19
f 21/21/21 17/17/17 20/20/20
f 21/21/21 22/22/22 17/17/17
f 22/22/22 15/15/15 17/17/17
f 18/18/18 16/16/16 23/23/23
f 23/23/23 16/16/16 24/24/24
f 16/16/16 14/14/14 24/24/24
f 24/24/24 14/14/14 25/25/25
f 14/14/14 12/12/12 25/25/25
f 25/25/25 12/12/12 26/26/26
f 12/12/12 10/10/10 26/26/26
f 26/26/26 10/10/10 7/7/7
f 26/26/26 7/7/7 27/27/27
f 27/27/27 7/7/7 4/4/4
f 3/2/3 27/27/27 4/4/4
f 2/3/2 5/5/5 28/28/28
f 29/29/29 2/3/2 28/28/28
f 1/1/1 2/3/2 29/29/29
f 30/30/30 1/1/1 29/29/29
f 30/30/30 29/29/29 31/31/31
f 32/32/32 30/30/30 31/31/31
f 32/32/32 31/31/31 33/33/33
f 34/34/34 32/32/32 33/33/33
f 34/34/34 33/33/33 35/35/35
f 35/35/35 33/33/33 36/36/36
f 35/35/35 36/36/36 37/37/37
f 38/38/38 35/35/35 37/37/37
f 38/38/38 37/37/37 39/39/39
f 29/29/29 28/28/28 40/40/40
f 31/31/31 29/29/29 40/40/40
f 33/33/33 31/31/31 40/40/40
f 33/33/33 40/40/40 41/41/41
f 33/33/33 41/41/41 36/36/36
f 42/42/42 34/34/34 35/35/35
f 42/42/42 35/35/35 38/38/38
f 43/43/43 42/42/42 38/38/38
f 43/43/43 38/38/38 44/44/44
f 45/45/45 43/43/43 44/44/44
f 45/45/45 44/44/44 46/46/46
f 46/46/46 44/44/44 47/47/47
f 46/46/46 47/47/47 48/48/48
f 49/49/49 46/46/46 48/48/48
f 49/49/49 48/48/48 50/50/50
f 51/51/51 49/49/49 50/50/50
f 51/51/51 50/50/50 52/52/52
f 53/53/53 51/51/51 52/52/52
f 53/53/53 52/52/52 54/54/54
f 55/55/55 53/53/53 54/54/54
f 56/56/56 53/53/53 55/55/55
f 57/57/57 53/53/53 56/56/56
f 57/57/57 58/58/58 53/53/53
f 58/58/58 51/51/51 53/53/53
f 58/58/58 59/59/59 51/51/51
f 59/59/59 49/49/49 51/51/51
f 59/59/59 60/60/60 49/49/49
f 60/60/60 46/46/46 49/49/49
f 60/60/60 45/45/45 46/46/46
f 44/44/44 38/38/38 39/39/39
f 44/44/44 39/39/39 47/47/47
