# Blender 4.3.0
# www.blender.org
o taillight_chrome_trunk
v 112.393913 -26.341454 9.830153
v 112.240494 -27.099913 9.838695
v 111.678047 -26.332922 9.757476
v 111.499077 -27.091408 9.778849
v 114.554253 -14.615008 9.817323
v 114.609642 -15.458692 9.620675
v 114.601120 -14.695969 9.590752
v 114.545746 -15.595044 9.889999
v 114.554253 -16.246994 9.646323
v 114.524414 -15.752710 9.971220
v 114.469040 -16.383347 10.026798
v 114.494606 -16.315170 9.941295
v 113.889519 -14.704498 9.577923
v 114.179276 -18.326395 9.689074
v 113.450653 -18.326395 9.646323
v 113.689262 -17.116253 9.624950
v 114.417892 -17.124773 9.663419
v 113.740395 -20.086216 10.112294
v 113.263145 -22.233776 10.146494
v 113.292961 -22.229509 10.060997
v 114.238937 -16.511183 10.582542
v 114.336952 -17.167383 10.056715
v 113.851173 -18.322132 10.680866
v 114.102577 -18.326395 10.082372
v 113.825623 -16.229948 9.607846
v 112.231972 -26.371283 10.206344
v 112.070045 -27.104156 10.214895
v 112.116936 -27.099913 10.133666
v 113.416534 -20.081953 10.719340
v 113.825623 -20.086216 9.719000
v 114.098312 -17.227034 10.629571
v 112.824257 -22.255095 10.783465
v 113.096985 -20.086216 9.671980
v 113.369682 -22.216738 9.753199
v 113.765961 -20.086216 10.026798
v 114.353981 -15.889065 10.420094
v 113.881004 -15.445912 9.595028
v 112.641022 -22.212473 9.706170
v 114.409370 -15.437392 10.283296
v 112.278854 -26.362755 10.125123
v 112.734779 -24.547537 10.099467
v 112.696434 -24.551802 10.180694
v 114.362495 -17.158863 9.971220
v 114.128143 -18.326395 9.992599
v 112.095634 -24.590137 10.834763
v 111.499077 -26.413881 10.903163
v 111.286026 -27.151039 10.920267
v 112.832794 -24.526234 9.787400
v 113.812836 -14.597963 9.821599
v 113.672211 -15.373481 10.321770
v 113.574211 -15.944456 10.514141
v 110.629807 -26.426678 10.920267
v 114.609642 15.667268 9.620675
v 114.554253 14.827833 9.817323
v 114.601120 14.904541 9.590752
v 114.545723 15.803620 9.889999
v 114.494606 16.523743 9.941295
v 114.554253 16.459820 9.646323
v 114.362495 17.367428 9.971220
v 114.417892 17.337606 9.663419
v 112.108406 -24.521971 9.736094
v 112.611206 -20.081953 10.774915
v 111.997597 -22.259338 10.817666
v 113.305771 -17.239826 10.706514
v 113.058617 -18.322132 10.736440
v 110.399734 -27.159569 10.933094
v 111.286026 -27.116970 10.214896
v 111.332886 -27.112705 10.133667
v 111.247658 -24.598665 10.873239
v 114.524414 15.961282 9.971220
v 114.409370 15.645965 10.283296
v 113.450653 -16.541012 10.642391
v 113.825600 20.294788 9.719000
v 114.128143 18.534958 9.992599
v 114.179276 18.534958 9.689074
v 114.469040 16.596184 10.026798
v 113.263145 22.442347 10.146494
v 113.416534 20.294788 10.719340
v 113.740395 20.294788 10.112294
v 112.824257 22.467911 10.783465
v 112.095634 24.798708 10.834763
v 112.696426 24.760372 10.180694
v 113.812836 14.806535 9.821599
v 113.889519 14.913058 9.577923
v 113.881004 15.654485 9.595028
v 112.734779 24.756105 10.099467
v 114.102562 18.534958 10.082372
v 113.765945 20.294788 10.026798
v 112.832779 24.734804 9.787400
v 113.292961 22.438105 10.060997
v 113.369682 22.425310 9.753199
v 113.825600 16.442783 9.607846
v 112.231972 26.579847 10.206344
v 112.070045 27.312744 10.214895
v 111.499077 26.622446 10.903163
v 113.689247 17.329079 9.624950
v 113.450638 18.534958 9.646323
v 113.096962 20.294788 9.671980
v 114.098312 17.439867 10.629571
v 114.336929 17.375956 10.056715
v 113.851173 18.530701 10.680866
v 112.278839 26.571321 10.125123
v 112.393913 26.549997 9.830153
v 112.116920 27.308481 10.133666
v 112.240494 27.308481 9.838695
v 112.641022 22.421045 9.706170
v 112.108406 24.730543 9.736094
v 111.678047 26.545755 9.757476
v 111.286026 27.359608 10.920267
v 114.353981 16.097637 10.420094
v 114.238937 16.719753 10.582542
v 111.499077 27.299950 9.778849
v 111.332886 27.321272 10.133667
v 110.629807 26.635220 10.920267
v 111.997597 22.472174 10.817666
v 112.611206 20.290522 10.774915
v 113.305748 17.448397 10.706514
v 113.058617 18.530701 10.736440
v 113.574211 16.153030 10.514141
v 113.450638 16.753838 10.642391
v 113.672211 15.586307 10.321770
v 110.399734 27.368139 10.933094
v 111.247658 24.807234 10.873239
v 111.286026 27.325516 10.214896
vn 0.0968 -0.0345 -0.9947
vn 0.0897 -0.0396 -0.9952
vn 0.0948 -0.0375 -0.9948
vn 0.0798 -0.0469 -0.9957
vn 0.9716 0.0162 0.2362
vn 0.9754 -0.0144 0.2201
vn 0.9804 0.0186 0.1961
vn 0.9673 -0.0119 0.2533
vn 0.9794 -0.0954 0.1782
vn 0.9667 -0.0307 0.2541
vn 0.9547 -0.1112 0.2759
vn 0.9758 -0.0985 0.1951
vn 0.0307 -0.0330 -0.9990
vn 0.0264 -0.0314 -0.9992
vn 0.0185 -0.0390 -0.9991
vn 0.0574 -0.0294 -0.9979
vn 0.0593 -0.0288 -0.9978
vn 0.0535 -0.0293 -0.9981
vn 0.9735 -0.1663 0.1572
vn 0.9087 -0.1950 0.3691
vn 0.8785 -0.2048 0.4317
vn 0.9391 -0.2107 0.2715
vn 0.9246 -0.1225 0.3606
vn 0.9347 -0.1660 0.3142
vn 0.9011 -0.1859 0.3916
vn 0.9276 -0.1849 0.3245
vn 0.0477 -0.0273 -0.9985
vn 0.0523 -0.0293 -0.9982
vn 0.0522 -0.0239 -0.9983
vn 0.7819 -0.1850 0.5953
vn 0.7644 -0.1700 0.6220
vn 0.8798 -0.1887 0.4363
vn 0.8593 -0.1956 0.4727
vn 0.0636 -0.0286 -0.9976
vn 0.9144 -0.1698 0.3675
vn 0.8012 -0.1991 0.5643
vn 0.0644 -0.0288 -0.9975
vn 0.0642 -0.0298 -0.9975
vn 0.9518 -0.1974 0.2349
vn 0.9346 -0.0459 0.3528
vn 0.0389 -0.0257 -0.9989
vn 0.0648 -0.0297 -0.9975
vn 0.9429 0.0091 0.3331
vn 0.8887 -0.2017 0.4116
vn 0.9130 -0.2175 0.3451
vn 0.8205 -0.2067 0.5330
vn 0.9629 -0.1684 0.2109
vn 0.9576 -0.1896 0.2169
vn 0.9680 -0.1913 0.1623
vn 0.7204 -0.1950 0.6656
vn 0.9509 -0.2113 0.2262
vn 0.6766 -0.1767 0.7148
vn 0.6643 -0.1751 0.7267
vn 0.9355 -0.2199 0.2764
vn 0.9180 -0.2054 0.3393
vn 0.0188 0.9183 -0.3955
vn -0.0000 0.9367 -0.3500
vn 0.0143 0.9229 -0.3847
vn 0.9087 -0.1914 0.3709
vn 0.9625 -0.1984 0.1852
vn -0.0052 0.9413 -0.3374
vn 0.0897 0.2668 0.9596
vn 0.0887 0.4078 0.9088
vn 0.0860 0.2504 0.9643
vn 0.0231 0.0190 0.9996
vn 0.0177 0.0167 0.9997
vn 0.0171 0.0155 0.9997
vn 0.9753 0.0143 0.2202
vn 0.9716 -0.0162 0.2361
vn 0.9803 -0.0187 0.1964
vn 0.9673 0.0118 0.2534
vn 0.9761 0.0979 0.1942
vn 0.9791 0.0956 0.1793
vn 0.9626 0.1686 0.2119
vn 0.9730 0.1667 0.1594
vn 0.0698 -0.0341 -0.9970
vn 0.0741 -0.0350 -0.9966
vn 0.0445 0.0087 0.9990
vn 0.0656 0.0077 0.9978
vn 0.0417 0.0086 0.9991
vn 0.0758 0.0115 0.9971
vn 0.0901 0.0418 0.9951
vn 0.0698 0.0075 0.9975
vn 0.0089 -0.9988 -0.0482
vn 0.0144 -0.9988 -0.0467
vn 0.0115 -0.9988 -0.0482
vn 0.0891 0.0453 0.9950
vn 0.0163 -0.9988 -0.0463
vn 0.0100 -0.9991 -0.0414
vn 0.0032 -0.9997 -0.0261
vn 0.0447 0.0146 0.9989
vn 0.0414 0.0169 0.9990
vn 0.0690 0.0070 0.9976
vn 0.0163 -0.9989 -0.0442
vn -0.0111 -0.9999 -0.0046
vn 0.9667 0.0306 0.2541
vn 0.9429 -0.0091 0.3330
vn 0.0811 0.1476 0.9857
vn 0.0143 0.0130 0.9998
vn 0.0667 0.4055 0.9116
vn 0.0470 0.5068 0.8608
vn 0.0776 0.1187 0.9899
vn 0.0163 0.4907 0.8712
vn 0.9625 0.1984 0.1852
vn 0.9576 0.1896 0.2170
vn 0.9680 0.1914 0.1625
vn 0.9555 0.1119 0.2730
vn 0.8787 0.2049 0.4312
vn 0.8598 0.1955 0.4717
vn 0.9090 0.1950 0.3685
vn 0.8017 0.1993 0.5635
vn 0.7204 0.1951 0.6656
vn 0.8205 0.2068 0.5330
vn 0.0241 -0.9188 -0.3941
vn 0.0186 -0.9245 -0.3807
vn 0.0008 -0.9414 -0.3374
vn 0.0307 0.0329 -0.9990
vn 0.0264 0.0314 -0.9992
vn 0.0389 0.0256 -0.9989
vn 0.9130 0.2175 0.3452
vn 0.9276 0.1850 0.3245
vn 0.9518 0.1974 0.2348
vn 0.9356 0.2199 0.2764
vn 0.9391 0.2107 0.2715
vn 0.9509 0.2113 0.2262
vn 0.0477 0.0272 -0.9985
vn 0.0522 0.0239 -0.9983
vn 0.7820 0.1850 0.5952
vn 0.7644 0.1700 0.6219
vn 0.6766 0.1767 0.7148
vn 0.0523 0.0294 -0.9982
vn 0.0574 0.0295 -0.9979
vn 0.0535 0.0293 -0.9981
vn 0.0593 0.0288 -0.9978
vn 0.0636 0.0286 -0.9976
vn 0.0644 0.0288 -0.9975
vn 0.9148 0.1697 0.3666
vn 0.9348 0.1661 0.3140
vn 0.9012 0.1862 0.3915
vn 0.0642 0.0298 -0.9975
vn 0.8888 0.2017 0.4116
vn 0.9180 0.2054 0.3394
vn 0.8798 0.1887 0.4362
vn 0.9087 0.1914 0.3709
vn -0.0055 -0.9468 -0.3217
vn 0.0185 0.0390 -0.9991
vn 0.0648 0.0297 -0.9975
vn 0.0698 0.0341 -0.9970
vn 0.0742 0.0350 -0.9966
vn 0.0970 0.0345 -0.9947
vn 0.0950 0.0376 -0.9948
vn 0.0898 0.0397 -0.9952
vn 0.6643 0.1751 0.7267
vn 0.9345 0.0457 0.3529
vn 0.9246 0.1223 0.3609
vn 0.0031 0.9997 -0.0263
vn 0.0100 0.9991 -0.0415
vn 0.0163 0.9988 -0.0462
vn 0.0231 -0.0190 0.9996
vn 0.0171 -0.0155 0.9997
vn 0.0177 -0.0167 0.9997
vn 0.0445 -0.0087 0.9990
vn 0.0417 -0.0086 0.9991
vn 0.0656 -0.0077 0.9978
vn 0.0892 -0.0453 0.9950
vn 0.0758 -0.0116 0.9971
vn 0.0903 -0.0420 0.9950
vn 0.0690 -0.0070 0.9976
vn 0.0698 -0.0075 0.9975
vn 0.0890 -0.2674 0.9595
vn 0.0807 -0.1475 0.9858
vn 0.0856 -0.2509 0.9642
vn 0.0447 -0.0146 0.9989
vn 0.0773 -0.1180 0.9900
vn 0.0656 -0.4059 0.9116
vn 0.0868 -0.4074 0.9091
vn 0.0474 -0.5070 0.8606
vn 0.0143 -0.0130 0.9998
vn 0.0414 -0.0169 0.9990
vn 0.0192 -0.4922 0.8702
vn -0.0111 0.9999 -0.0047
vn 0.0163 0.9989 -0.0444
vn 0.0144 0.9988 -0.0466
vn 0.0798 0.0472 -0.9957
vn 0.0115 0.9988 -0.0483
vn 0.0089 0.9988 -0.0483
vt 0.154347 0.122468
vt 0.148411 0.084464
vt 0.203382 0.094781
vt 0.159989 0.042897
vt 0.101660 0.946601
vt 0.116569 0.920086
vt 0.109125 0.945387
vt 0.103870 0.910750
vt 0.124510 0.875101
vt 0.100114 0.901351
vt 0.100564 0.862637
vt 0.105699 0.867695
vt 0.123862 0.992217
vt 0.136173 0.726446
vt 0.190398 0.718829
vt 0.184453 0.812035
vt 0.130891 0.815305
vt 0.112049 0.589658
vt 0.118643 0.425273
vt 0.125298 0.426439
vt 0.061887 0.850381
vt 0.103085 0.808885
vt 0.058558 0.717415
vt 0.106654 0.723408
vt 0.176229 0.880627
vt 0.127068 0.118986
vt 0.130167 0.077822
vt 0.135052 0.079609
vt 0.060920 0.582045
vt 0.142020 0.592693
vt 0.059053 0.799639
vt 0.061936 0.413410
vt 0.196133 0.583890
vt 0.148771 0.429919
vt 0.118667 0.590429
vt 0.071370 0.891662
vt 0.161331 0.941021
vt 0.202735 0.420526
vt 0.080903 0.918494
vt 0.132613 0.120363
vt 0.131642 0.249554
vt 0.125287 0.248344
vt 0.109226 0.810266
vt 0.113478 0.724200
vt 0.060839 0.231058
vt 0.067572 0.094502
vt 0.081631 0.048178
vt 0.155264 0.253649
vt 0.092545 0.999909
vt 0.034318 0.942172
vt 0.014568 0.895335
vt 0.013245 0.057570
vt 0.301664 0.920031
vt 0.316540 0.946528
vt 0.309074 0.945342
vt 0.314375 0.910711
vt 0.312584 0.867673
vt 0.293730 0.874797
vt 0.309064 0.810265
vt 0.287375 0.815008
vt 0.209065 0.242115
vt 0.002282 0.565925
vt 0.002307 0.395607
vt 0.000092 0.788794
vt 0.000293 0.703214
vt 0.043476 0.000091
vt 0.125689 0.027871
vt 0.131607 0.030635
vt 0.000092 0.208826
vt 0.318138 0.901317
vt 0.337340 0.918469
vt 0.003838 0.845494
vt 0.276272 0.592694
vt 0.304813 0.724204
vt 0.282119 0.726451
vt 0.317687 0.862349
vt 0.299656 0.425283
vt 0.357318 0.581736
vt 0.306242 0.589660
vt 0.356305 0.413118
vt 0.357473 0.231070
vt 0.293021 0.248357
vt 0.325556 0.999843
vt 0.294376 0.992103
vt 0.256923 0.940958
vt 0.286667 0.249566
vt 0.311636 0.723412
vt 0.299624 0.590430
vt 0.263045 0.253660
vt 0.293001 0.426447
vt 0.269529 0.429928
vt 0.242019 0.880270
vt 0.291235 0.118990
vt 0.288144 0.077814
vt 0.350743 0.094506
vt 0.233835 0.811703
vt 0.227892 0.718820
vt 0.222162 0.583889
vt 0.359194 0.799341
vt 0.315205 0.808883
vt 0.359740 0.717418
vt 0.285689 0.120367
vt 0.263949 0.122475
vt 0.283258 0.079601
vt 0.269894 0.084453
vt 0.215567 0.420531
vt 0.209249 0.242126
vt 0.215035 0.094490
vt 0.336688 0.048176
vt 0.346884 0.891653
vt 0.356398 0.850374
vt 0.258326 0.042880
vt 0.286711 0.030623
vt 0.405077 0.057578
vt 0.415928 0.395311
vt 0.416040 0.565931
vt 0.418221 0.788796
vt 0.418010 0.703218
vt 0.403707 0.895382
vt 0.414451 0.845178
vt 0.384019 0.941912
vt 0.374852 0.000091
vt 0.418221 0.208837
vt 0.292630 0.027860
s 1
f 1/1/1 2/2/2 3/3/3
f 2/2/2 4/4/4 3/3/3
f 5/5/5 6/6/6 7/7/7
f 6/6/6 8/8/8 9/9/9
f 5/5/5 8/8/8 6/6/6
f 10/10/10 11/11/11 12/12/12
f 6/6/13 13/13/14 7/7/15
f 14/14/16 15/15/17 16/16/18
f 9/9/9 12/12/12 17/17/19
f 18/18/20 19/19/21 20/20/22
f 11/11/11 21/21/23 22/22/24
f 23/23/25 18/18/20 24/24/26
f 9/9/27 17/17/28 25/25/29
f 26/26/30 27/27/31 28/28/32
f 23/23/25 29/29/33 18/18/20
f 14/14/16 30/30/34 15/15/17
f 21/21/23 31/31/35 22/22/24
f 29/29/33 19/19/21 18/18/20
f 29/29/33 32/32/36 19/19/21
f 30/30/34 33/33/37 15/15/17
f 30/30/34 34/34/38 33/33/37
f 24/24/26 18/18/20 35/35/39
f 8/8/8 12/12/12 9/9/9
f 36/36/40 21/21/23 11/11/11
f 9/9/27 25/25/29 37/37/41
f 34/34/38 38/38/42 33/33/37
f 39/39/43 10/10/10 8/8/8
f 40/40/44 26/26/30 28/28/32
f 41/41/45 42/42/46 40/40/44
f 11/11/11 22/22/24 43/43/47
f 24/24/26 35/35/39 44/44/48
f 17/17/19 43/43/47 14/14/49
f 31/31/35 23/23/25 24/24/26
f 19/19/21 32/32/36 42/42/46
f 32/32/36 45/45/50 42/42/46
f 43/43/47 44/44/48 14/14/49
f 35/35/39 20/20/22 34/34/51
f 39/39/43 36/36/40 10/10/10
f 8/8/8 10/10/10 12/12/12
f 26/26/30 45/45/50 46/46/52
f 22/22/24 24/24/26 44/44/48
f 27/27/31 46/46/52 47/47/53
f 20/20/22 41/41/45 48/48/54
f 20/20/22 19/19/21 41/41/45
f 41/41/45 40/40/44 1/1/55
f 5/5/5 39/39/43 8/8/8
f 19/19/21 42/42/46 41/41/45
f 49/49/56 5/5/57 13/13/58
f 48/48/54 41/41/45 1/1/55
f 40/40/44 28/28/32 2/2/59
f 6/6/13 37/37/41 13/13/14
f 10/10/10 36/36/40 11/11/11
f 6/6/13 9/9/27 37/37/41
f 44/44/48 35/35/39 30/30/60
f 12/12/12 43/43/47 17/17/19
f 34/34/51 20/20/22 48/48/54
f 26/26/30 46/46/52 27/27/31
f 30/30/60 35/35/39 34/34/51
f 44/44/48 30/30/60 14/14/49
f 22/22/24 31/31/35 24/24/26
f 5/5/57 7/7/61 13/13/58
f 17/17/28 16/16/18 25/25/29
f 17/17/28 14/14/16 16/16/18
f 42/42/46 26/26/30 40/40/44
f 42/42/46 45/45/50 26/26/30
f 18/18/20 20/20/22 35/35/39
f 12/12/12 11/11/11 43/43/47
f 1/1/55 40/40/44 2/2/59
f 43/43/47 22/22/24 44/44/48
f 36/36/62 50/50/63 51/51/64
f 46/46/65 52/52/66 47/47/67
f 53/53/68 54/54/69 55/55/70
f 56/56/71 54/54/69 53/53/68
f 57/57/72 56/56/71 58/58/73
f 59/59/74 57/57/72 60/60/75
f 48/48/76 1/1/1 61/61/77
f 32/32/78 62/62/79 63/63/80
f 23/23/81 64/64/82 65/65/83
f 60/60/75 57/57/72 58/58/73
f 66/66/84 67/67/85 47/47/86
f 48/48/76 61/61/77 38/38/42
f 31/31/87 64/64/82 23/23/81
f 68/68/88 4/4/89 28/28/90
f 32/32/78 63/63/80 45/45/91
f 45/45/91 69/69/92 46/46/65
f 23/23/81 65/65/83 29/29/93
f 34/34/38 48/48/76 38/38/42
f 1/1/1 3/3/3 61/61/77
f 67/67/85 68/68/88 27/27/94
f 29/29/93 65/65/83 62/62/79
f 46/46/65 69/69/92 52/52/66
f 28/28/90 4/4/89 2/2/95
f 27/27/94 68/68/88 28/28/90
f 70/70/96 71/71/97 56/56/71
f 57/57/72 70/70/96 56/56/71
f 56/56/71 71/71/97 54/54/69
f 47/47/86 67/67/85 27/27/94
f 36/36/62 51/51/64 21/21/98
f 47/47/67 52/52/66 66/66/99
f 39/39/100 50/50/63 36/36/62
f 39/39/100 49/49/101 50/50/63
f 31/31/87 72/72/102 64/64/82
f 45/45/91 63/63/80 69/69/92
f 29/29/93 62/62/79 32/32/78
f 21/21/98 72/72/102 31/31/87
f 21/21/98 51/51/64 72/72/102
f 5/5/103 49/49/101 39/39/100
f 73/73/104 74/74/105 75/75/106
f 76/76/107 70/70/96 57/57/72
f 58/58/73 56/56/71 53/53/68
f 77/77/108 78/78/109 79/79/110
f 80/80/111 78/78/109 77/77/108
f 81/81/112 80/80/111 82/82/113
f 83/83/114 84/84/115 54/54/116
f 53/53/117 84/84/118 85/85/119
f 82/82/113 77/77/108 86/86/120
f 79/79/110 87/87/121 88/88/122
f 89/89/123 90/90/124 91/91/125
f 75/75/106 59/59/74 60/60/75
f 58/58/126 85/85/119 92/92/127
f 88/88/122 74/74/105 73/73/104
f 93/93/128 94/94/129 95/95/130
f 53/53/117 85/85/119 58/58/126
f 58/58/126 92/92/127 60/60/131
f 75/75/132 96/96/133 97/97/134
f 88/88/122 87/87/121 74/74/105
f 73/73/135 97/97/134 98/98/136
f 87/87/121 99/99/137 100/100/138
f 78/78/109 101/101/139 79/79/110
f 73/73/135 98/98/136 91/91/140
f 102/102/141 82/82/113 86/86/120
f 93/93/128 81/81/112 82/82/113
f 90/90/124 79/79/110 88/88/122
f 103/103/142 86/86/120 89/89/123
f 104/104/143 102/102/141 105/105/144
f 104/104/143 93/93/128 102/102/141
f 77/77/108 79/79/110 90/90/124
f 93/93/128 95/95/130 81/81/112
f 82/82/113 80/80/111 77/77/108
f 54/54/116 84/84/115 55/55/145
f 53/53/117 55/55/146 84/84/118
f 60/60/131 92/92/127 96/96/133
f 60/60/131 96/96/133 75/75/132
f 75/75/132 97/97/134 73/73/135
f 91/91/140 98/98/136 106/106/147
f 91/91/140 106/106/147 89/89/148
f 89/89/148 106/106/147 107/107/149
f 89/89/148 107/107/149 103/103/150
f 103/103/150 107/107/149 108/108/151
f 103/103/150 108/108/151 105/105/152
f 94/94/129 93/93/128 104/104/143
f 74/74/105 59/59/74 75/75/106
f 94/94/129 109/109/153 95/95/130
f 59/59/74 76/76/107 57/57/72
f 86/86/120 90/90/124 89/89/123
f 91/91/125 88/88/122 73/73/104
f 102/102/141 86/86/120 103/103/142
f 93/93/128 82/82/113 102/102/141
f 86/86/120 77/77/108 90/90/124
f 90/90/124 88/88/122 91/91/125
f 87/87/121 100/100/138 74/74/105
f 74/74/105 100/100/138 59/59/74
f 100/100/138 76/76/107 59/59/74
f 76/76/107 110/110/154 70/70/96
f 110/110/154 71/71/97 70/70/96
f 105/105/144 102/102/141 103/103/142
f 111/111/155 110/110/154 76/76/107
f 100/100/138 111/111/155 76/76/107
f 99/99/137 111/111/155 100/100/138
f 87/87/121 101/101/139 99/99/137
f 79/79/110 101/101/139 87/87/121
f 104/104/156 112/112/157 113/113/158
f 95/95/159 109/109/160 114/114/161
f 80/80/162 115/115/163 116/116/164
f 99/99/165 101/101/166 117/117/167
f 78/78/168 116/116/164 118/118/169
f 78/78/168 80/80/162 116/116/164
f 110/110/170 111/111/171 119/119/172
f 101/101/166 78/78/168 118/118/169
f 80/80/162 81/81/173 115/115/163
f 99/99/165 117/117/167 120/120/174
f 71/71/175 121/121/176 83/83/177
f 109/109/160 122/122/178 114/114/161
f 81/81/173 123/123/179 115/115/163
f 110/110/170 119/119/172 121/121/176
f 54/54/180 71/71/175 83/83/177
f 81/81/173 95/95/159 123/123/179
f 104/104/156 105/105/181 112/112/157
f 94/94/182 113/113/158 124/124/183
f 94/94/182 104/104/156 113/113/158
f 101/101/166 118/118/169 117/117/167
f 111/111/171 99/99/165 120/120/174
f 71/71/175 110/110/170 121/121/176
f 111/111/171 120/120/174 119/119/172
f 105/105/152 108/108/151 112/112/184
f 109/109/185 94/94/182 124/124/183
f 95/95/159 114/114/161 123/123/179
f 122/122/186 109/109/185 124/124/183
